<svg width="25" height="25" viewBox="0 0 25 25" fill="none" xmlns="http://www.w3.org/2000/svg">
<g clip-path="url(#clip0_147_179)">
<path d="M12.5 0.5C10.1266 0.5 7.80655 1.20379 5.83316 2.52236C3.85977 3.84094 2.3217 5.71508 1.41345 7.9078C0.505199 10.1005 0.267559 12.5133 0.730582 14.8411C1.1936 17.1689 2.33649 19.307 4.01472 20.9853C5.69295 22.6635 7.83115 23.8064 10.1589 24.2694C12.4867 24.7324 14.8995 24.4948 17.0922 23.5866C19.2849 22.6783 21.1591 21.1402 22.4776 19.1668C23.7962 17.1935 24.5 14.8734 24.5 12.5C24.5 10.9241 24.1896 9.3637 23.5866 7.9078C22.9835 6.45189 22.0996 5.12902 20.9853 4.01472C19.871 2.90042 18.5481 2.0165 17.0922 1.41345C15.6363 0.810389 14.0759 0.5 12.5 0.5ZM8.336 14.264C8.42443 14.3464 8.49535 14.4458 8.54454 14.5562C8.59373 14.6666 8.62018 14.7857 8.62231 14.9066C8.62445 15.0274 8.60222 15.1474 8.55695 15.2595C8.51169 15.3716 8.44431 15.4734 8.35885 15.5588C8.27339 15.6443 8.17159 15.7117 8.05952 15.7569C7.94746 15.8022 7.82742 15.8244 7.70658 15.8223C7.58573 15.8202 7.46656 15.7937 7.35616 15.7445C7.24576 15.6953 7.1464 15.6244 7.064 15.536L4.664 13.136C4.58041 13.0525 4.51409 12.9534 4.46884 12.8442C4.42359 12.7351 4.4003 12.6181 4.4003 12.5C4.4003 12.3819 4.42359 12.2649 4.46884 12.1557C4.51409 12.0466 4.58041 11.9475 4.664 11.864L7.064 9.464C7.1464 9.37558 7.24576 9.30465 7.35616 9.25546C7.46656 9.20627 7.58573 9.17982 7.70658 9.17769C7.82742 9.17556 7.94746 9.19779 8.05952 9.24305C8.17159 9.28832 8.27339 9.35569 8.35885 9.44115C8.44431 9.52662 8.51169 9.62842 8.55695 9.74048C8.60222 9.85255 8.62445 9.97258 8.62231 10.0934C8.62018 10.2143 8.59373 10.3334 8.54454 10.4438C8.49535 10.5542 8.42443 10.6536 8.336 10.736L6.5732 12.5L8.336 14.264ZM14.5268 10.0556L12.1268 15.6548C12.03 15.8701 11.8524 16.0386 11.6324 16.1243C11.4125 16.2099 11.1677 16.2056 10.9508 16.1124C10.7339 16.0193 10.5623 15.8446 10.473 15.6261C10.3837 15.4077 10.3837 15.1628 10.4732 14.9444L12.8732 9.3452C12.9701 9.12994 13.1476 8.96135 13.3676 8.87574C13.5875 8.79014 13.8323 8.79438 14.0492 8.88756C14.2661 8.98073 14.4377 9.15537 14.527 9.37385C14.6163 9.59234 14.6163 9.83717 14.5268 10.0556ZM20.336 13.136L17.936 15.536C17.8536 15.6244 17.7542 15.6953 17.6439 15.7445C17.5335 15.7937 17.4143 15.8202 17.2934 15.8223C17.1726 15.8244 17.0526 15.8022 16.9405 15.7569C16.8284 15.7117 16.7266 15.6443 16.6412 15.5588C16.5557 15.4734 16.4883 15.3716 16.4431 15.2595C16.3978 15.1474 16.3756 15.0274 16.3777 14.9066C16.3798 14.7857 16.4063 14.6666 16.4555 14.5562C16.5047 14.4458 16.5756 14.3464 16.664 14.264L18.4268 12.5L16.664 10.736C16.5756 10.6536 16.5047 10.5542 16.4555 10.4438C16.4063 10.3334 16.3798 10.2143 16.3777 10.0934C16.3756 9.97258 16.3978 9.85255 16.4431 9.74048C16.4883 9.62842 16.5557 9.52662 16.6412 9.44115C16.7266 9.35569 16.8284 9.28832 16.9405 9.24305C17.0526 9.19779 17.1726 9.17556 17.2934 9.17769C17.4143 9.17982 17.5335 9.20627 17.6439 9.25546C17.7542 9.30465 17.8536 9.37558 17.936 9.464L20.336 11.864C20.4196 11.9475 20.4859 12.0466 20.5312 12.1557C20.5764 12.2649 20.5997 12.3819 20.5997 12.5C20.5997 12.6181 20.5764 12.7351 20.5312 12.8442C20.4859 12.9534 20.4196 13.0525 20.336 13.136Z" fill="#4C1E4F"/>
</g>
<defs>
<clipPath id="clip0_147_179">
<rect width="24" height="24" fill="white" transform="translate(0.5 0.5)"/>
</clipPath>
</defs>
</svg>
