<svg width="25" height="25" viewBox="0 0 25 25" fill="none" xmlns="http://www.w3.org/2000/svg">
<g clip-path="url(#clip0_147_154)">
<path d="M21.0355 13.312H19.1794C19.3686 13.83 19.472 14.389 19.472 14.9716V21.9864C19.472 22.2293 19.4297 22.4625 19.3528 22.6793H22.4213C23.5675 22.6793 24.5 21.7468 24.5 20.6006V16.7765C24.5 14.8662 22.9459 13.312 21.0355 13.312Z" fill="#4C1E4F"/>
<path d="M5.52806 14.9716C5.52806 14.3889 5.63142 13.83 5.8206 13.312H3.96454C2.05419 13.312 0.5 14.8662 0.5 16.7765V20.6007C0.5 21.7469 1.43249 22.6794 2.57872 22.6794H5.64726C5.57034 22.4625 5.52806 22.2293 5.52806 21.9864V14.9716Z" fill="#4C1E4F"/>
<path d="M14.6216 11.5068H10.3784C8.46807 11.5068 6.91388 13.061 6.91388 14.9714V21.9862C6.91388 22.3689 7.2241 22.6791 7.60679 22.6791H17.3933C17.776 22.6791 18.0862 22.3689 18.0862 21.9862V14.9714C18.0862 13.061 16.532 11.5068 14.6216 11.5068Z" fill="#4C1E4F"/>
<path d="M12.5 2.3208C10.2026 2.3208 8.3335 4.1899 8.3335 6.48739C8.3335 8.04575 9.19361 9.40677 10.4638 10.1213C11.0663 10.4602 11.7609 10.6539 12.5 10.6539C13.2392 10.6539 13.9338 10.4602 14.5362 10.1213C15.8065 9.40677 16.6666 8.0457 16.6666 6.48739C16.6666 4.18994 14.7975 2.3208 12.5 2.3208Z" fill="#4C1E4F"/>
<path d="M5.18365 6.2041C3.46544 6.2041 2.06763 7.60192 2.06763 9.32012C2.06763 11.0383 3.46544 12.4361 5.18365 12.4361C5.61949 12.4361 6.03453 12.3459 6.41154 12.1836C7.06339 11.9029 7.60086 11.4062 7.93344 10.7839C8.16687 10.3472 8.29967 9.84892 8.29967 9.32012C8.29967 7.60196 6.90185 6.2041 5.18365 6.2041Z" fill="#4C1E4F"/>
<path d="M19.8164 6.2041C18.0982 6.2041 16.7004 7.60192 16.7004 9.32012C16.7004 9.84897 16.8332 10.3472 17.0666 10.7839C17.3992 11.4062 17.9367 11.903 18.5885 12.1836C18.9655 12.3459 19.3806 12.4361 19.8164 12.4361C21.5346 12.4361 22.9324 11.0383 22.9324 9.32012C22.9324 7.60192 21.5346 6.2041 19.8164 6.2041Z" fill="#4C1E4F"/>
</g>
<defs>
<clipPath id="clip0_147_154">
<rect width="24" height="24" fill="white" transform="translate(0.5 0.5)"/>
</clipPath>
</defs>
</svg>
