<svg width="359" height="377" viewBox="0 0 359 377" fill="none" xmlns="http://www.w3.org/2000/svg">
<g opacity="0.4" clip-path="url(#clip0_11_240)">
<g style="mix-blend-mode:color-dodge">
<path d="M61.0805 598.449C60.5892 595.485 58.5624 594.027 56.2592 594.626L39.8759 492.168L94.0161 364.696L70.9689 289.68L19.8228 279.791L11.7309 237.807L39.9373 192.521L40.0601 192.321L26.5174 147.773L8.29148 148.372L1.05947 118.335L20.6673 92.9353L20.7594 92.8125L4.23787 45.6994C4.8367 45.2694 5.22056 44.8087 5.15914 44.6091C5.06701 44.3634 4.34535 44.563 3.54691 45.0544C2.74847 45.5458 2.165 46.1447 2.25712 46.4057C2.3339 46.6207 2.8406 46.5132 3.47014 46.1908L19.7614 93.2885L0 118.795L7.2013 149.293L25.4118 148.725L38.6321 192.889L10.3797 238.144L10.2415 238.375L18.318 281.204L69.3874 291.231L91.7897 365.341L37.3731 492.721L53.5107 596.33C51.4379 598.434 50.1941 601.889 50.6394 604.884C51.1768 608.508 53.9867 610.028 56.8887 608.231C59.7908 606.435 61.664 602.058 61.0805 598.465V598.449Z" fill="url(#paint0_radial_11_240)"/>
<path d="M59.0042 493.599L111.409 363.854L81.4679 276.308L30.1222 267.616L22.9976 235.767L50.8816 189.929L33.9915 140.082L15.6889 140.911L8.87143 115.927L28.3718 90.3277L21.2472 71.9463C21.9382 71.4395 22.3681 70.8867 22.2606 70.6103C22.1378 70.2724 21.2779 70.472 20.3413 71.0402C19.4047 71.6084 18.7598 72.3455 18.8826 72.6834C18.9901 72.9598 19.6043 72.8676 20.3413 72.4991L27.3276 90.7884L7.78125 116.403L14.5987 141.802L32.886 141.004L49.4075 190.497L21.4468 236.335L28.6174 268.983L79.8864 277.813L109.106 364.499L56.4246 494.152L64.0098 535.031C62.0904 536.92 60.9695 539.96 61.4148 542.525C61.9676 545.611 64.6239 546.794 67.3263 545.135C70.0287 543.461 71.7331 539.607 71.1343 536.551C70.6429 534.017 68.7236 532.85 66.5586 533.464L59.0042 493.615V493.599Z" fill="url(#paint1_radial_11_240)"/>
<path d="M13.252 39.6022C13.3288 39.8018 13.8662 39.6943 14.4957 39.3718L34.6563 87.3756L15.3863 112.928L22.2498 135.64L40.6906 134.642L59.7764 186.255L32.5373 231.817L32.3992 232.047L39.2934 259.52L91.1458 267.474L125.463 359.443L79.2614 478.316C77.2653 478.562 75.177 480.359 74.1943 482.846C73.012 485.856 73.918 488.728 76.2211 489.265C78.5397 489.803 81.3803 487.745 82.5472 484.704C83.5146 482.186 82.9925 479.821 81.4724 478.808L127.797 358.814L92.6966 266.015L40.7828 258.184L38.0036 247.311L115.698 257.677L134.246 299.477C132.864 300.721 132.189 302.441 132.726 303.669C133.371 305.159 135.536 305.374 137.547 304.145C139.559 302.917 140.634 300.705 139.958 299.216C139.405 297.987 137.808 297.665 136.15 298.294L117.233 256.187L37.6044 245.76L33.95 231.494L61.2351 185.702L53.7881 165.831L66.471 165.8L79.7681 197.741L67.6226 219.578C66.3942 219.962 65.0737 220.96 64.4442 222.081C63.6918 223.432 64.2292 224.431 65.6418 224.308C67.0545 224.185 68.8202 222.987 69.5726 221.636C70.1868 220.515 69.9104 219.655 68.9738 219.47L81.3342 197.173L67.6686 164.771L53.3889 164.817L41.7501 133.767L23.2939 134.78L17.7048 116.568L48.9514 113.85L59.4846 138.205L67.0084 137.852C66.6245 138.589 66.8856 139.111 67.7301 139.08C68.7588 139.034 70.2482 138.19 71.0466 137.207C71.8451 136.224 71.6455 135.472 70.6014 135.518C69.7415 135.564 68.5899 136.147 67.7608 136.9L60.5902 137.238L49.9648 112.99L17.4745 115.862L16.4304 112.468L35.6697 86.9149L23.0175 57.1544L28.9597 56.0334L42.656 85.9475L28.7448 104.713L29.3743 106.417C28.5912 107.016 28.0845 107.707 28.2227 108.076C28.3916 108.521 29.3897 108.352 30.4798 107.692C31.57 107.032 32.307 106.126 32.1381 105.68C31.9999 105.312 31.2783 105.373 30.4184 105.788L29.8503 104.237L43.7308 85.4868L29.7889 55.4038L22.8486 56.7091L15.2788 38.8958C15.8776 38.4658 16.2615 38.0205 16.1694 37.8208C16.0619 37.5751 15.3248 37.7901 14.5264 38.2815C13.728 38.7729 13.1599 39.3718 13.252 39.6175V39.6022Z" fill="url(#paint2_radial_11_240)"/>
<path d="M63.6252 8.61624C63.7634 8.78516 64.3316 8.64695 64.9918 8.30912L91.0332 39.1753L102.703 36.8872L113.973 49.1262L106.818 60.0752C105.942 60.4284 105.037 61.0734 104.653 61.6722C104.192 62.3786 104.653 62.7318 105.666 62.4708C106.695 62.1944 107.908 61.3958 108.369 60.6894C108.752 60.1059 108.491 59.7681 107.8 59.8295L115.094 48.6348L103.962 36.6568L120.591 33.4013L139.047 51.1378L129.942 66.3099L144.083 81.6661L124.951 83.985L118.579 76.2761C119.393 75.6465 119.808 74.9401 119.516 74.5869C119.163 74.1723 117.95 74.4026 116.798 75.109C115.647 75.8154 114.986 76.7368 115.324 77.1668C115.616 77.5199 116.506 77.4125 117.474 76.9518L123.938 84.8449L144.697 82.3572L144.728 82.3265L159.883 98.7884L184.205 96.485L214.899 126.23L204.273 153.441C202.861 153.902 201.555 154.9 201.156 155.96C200.665 157.219 201.632 158.064 203.352 157.818C205.072 157.572 206.868 156.344 207.36 155.069C207.759 154.01 207.129 153.288 205.932 153.211L216.664 125.57L186.201 96.3161L208.358 94.2276L232.956 115.726L216.142 161.626L264.985 214.974L383.538 221.823L400.044 235.306C398.647 236.719 398.57 238.561 400.075 239.805C401.902 241.31 405.311 241.372 407.691 239.913C410.055 238.454 410.455 236.058 408.597 234.569C407.061 233.34 404.466 233.125 402.286 233.924L385.12 220.026L266.505 213.408L218.031 160.951L234.706 115.066L209.478 93.2141L161.004 97.8517L131.216 65.8031L140.291 50.6464L121.497 32.741L91.9084 38.5457L65.7595 7.83307C66.343 7.41845 66.6655 6.98847 66.5273 6.81955C66.3584 6.61992 65.5599 6.86562 64.7615 7.35703C63.963 7.84843 63.441 8.41661 63.6099 8.61624H63.6252Z" fill="url(#paint3_radial_11_240)"/>
<path d="M392.786 204.593L274.955 199.971L233.221 157.618L248.944 111.442L216.193 84.7528L167.78 89.8665L140.832 62.6705L149.707 47.4678L126.967 27.1053L97.3636 33.1096L90.9454 26.0457C91.6056 25.5543 91.9588 25.0629 91.7592 24.8479C91.5288 24.5869 90.5922 24.8479 89.6709 25.4007C88.7497 25.9536 88.1969 26.6293 88.4272 26.8903C88.6268 27.1053 89.3024 26.9671 90.0548 26.5832L96.5191 33.7546L126.107 27.781L148.479 47.9899L139.573 63.1926L166.674 90.8032L215.056 85.751L247.132 112.118L231.271 158.31L273.435 201.507L391.204 206.344L460.546 259.63C459.072 261.197 459.164 263.285 461.037 264.744C463.294 266.51 467.256 266.648 469.851 265.051C472.445 263.454 472.66 260.736 470.357 259.001C468.453 257.573 465.444 257.265 463.002 258.11L392.74 204.578L392.786 204.593Z" fill="url(#paint4_radial_11_240)"/>
<path d="M74.6394 1.84251C74.793 1.99608 75.3764 1.85787 76.0213 1.52003L102.539 29.0999L132.281 22.9267L157.155 44.0416L148.48 59.1983L174.567 84.1369L223.21 78.6701L259.816 106.987L244.906 153.056L284.26 190.894L402.414 194.211C401.155 195.501 401.109 197.098 402.521 198.127C404.241 199.386 407.465 199.309 409.692 197.942C411.918 196.576 412.287 194.441 410.536 193.197C409.093 192.168 406.636 192.076 404.594 192.859L404.087 192.491L285.734 189.389L246.872 152.35L261.582 106.496L261.643 106.296L224.331 77.6719L175.657 83.2002L149.754 58.6608L158.399 43.5195L133.14 22.2664L103.383 28.455L76.8044 1.04399C77.3879 0.629365 77.7103 0.214745 77.5414 0.0611824C77.3572 -0.123093 76.5587 0.122608 75.7603 0.614009C74.9619 1.10541 74.4552 1.65824 74.6394 1.85787V1.84251Z" fill="url(#paint5_radial_11_240)"/>
<path d="M45.0102 20.0705C45.1331 20.2548 45.6858 20.1165 46.3307 19.7941L52.2422 28.6393L44.7031 37.9452L71.7579 83.6763L68.8559 87.8685C67.9807 88.2217 67.0594 88.882 66.6295 89.5117C66.1074 90.2641 66.4759 90.6941 67.474 90.4484C68.472 90.2027 69.7004 89.3888 70.2224 88.621C70.6524 87.9914 70.4528 87.6075 69.8079 87.6228L72.8788 83.1695L45.5783 37.5152L52.4725 28.9925L79.2817 69.1185L90.7822 67.3679L102.912 84.0141L95.189 96.2377L111.895 121.606L136.462 119.948L140.04 124.662L120.432 162.224L143.387 200.553C142.235 201.536 141.698 202.78 142.174 203.578C142.742 204.546 144.569 204.5 146.228 203.471C147.901 202.442 148.777 200.829 148.193 199.877C147.702 199.094 146.366 199.002 144.984 199.586L122.013 161.625L140.746 125.584L159.939 150.937L148.147 176.229L213.266 274.939L257.318 281.066C257.103 282.694 258.178 284.061 260.113 284.337C262.447 284.675 265.103 283.277 266.009 281.22C266.915 279.177 265.748 277.273 263.429 276.966C261.51 276.705 259.391 277.626 258.209 279.116L214.924 273.204L156.147 184.997L181.298 185.627L212.145 227.196L280.55 232.494L313.654 268.704L323.988 269.902C323.926 271.576 325.293 272.989 327.489 273.25C330.145 273.572 332.939 272.098 333.723 269.964C334.506 267.844 332.985 265.909 330.36 265.618C328.179 265.372 325.922 266.355 324.755 267.89L315.343 266.815L282.131 230.82L213.665 225.661L182.679 184.306L155.272 183.676L149.882 175.599L156.592 161.149L179.394 160.965L206.279 194.733C205.097 195.777 204.636 197.098 205.297 197.927C206.095 198.941 208.199 198.879 209.995 197.774C211.792 196.668 212.575 194.963 211.746 193.95C211.07 193.121 209.504 193.044 207.984 193.673L180.699 159.721L157.129 159.951L161.613 150.292L137.629 118.919L113.046 120.608L103.266 105.912L142.589 102.303L164.269 128.21L183.094 127.196C182.833 128.041 183.386 128.64 184.583 128.578C186.011 128.501 187.777 127.518 188.53 126.382C189.267 125.246 188.698 124.401 187.27 124.478C186.088 124.539 184.676 125.23 183.816 126.106L165.467 127.119L143.694 101.336L102.759 105.144L96.4634 95.6849L104.156 83.4613L91.7342 66.5847L80.2336 68.3507L57.2325 34.2597L68.1496 31.9255L80.7557 48.7868C80.0494 49.3089 79.6655 49.877 79.8498 50.1381C80.0801 50.4606 81.0781 50.2149 82.0608 49.616C83.0435 49.0017 83.6577 48.2646 83.412 47.9422C83.2124 47.6811 82.4908 47.8039 81.6923 48.2032L68.948 31.2959L56.9868 33.8604L47.1445 19.272C47.728 18.842 48.0811 18.412 47.9583 18.2431C47.8047 18.0281 47.037 18.2431 46.2386 18.7498C45.4401 19.2412 44.9027 19.8248 45.0409 20.0398L45.0102 20.0705Z" fill="url(#paint6_radial_11_240)"/>
<path d="M29.2671 29.7618C29.3746 29.946 29.912 29.8385 30.5569 29.5007L58.6251 81.666L51.8076 91.1716L60.9897 110.044L75.2848 108.739L89.6567 135.029L76.9124 156.313L93.5721 192.185L121.226 193.245L177.454 296.301L160.057 345.733L159.919 346.132L170.606 369.689C169.025 371.194 168.334 373.39 169.086 375.063C169.992 377.09 172.633 377.566 174.967 376.123C177.316 374.68 178.452 371.869 177.516 369.873C176.748 368.214 174.798 367.646 172.832 368.322L162.33 345.456L179.619 295.948L179.742 295.595L122.577 191.986L94.8926 190.987L89.2728 179.04L111.199 139.728L111.307 139.544L95.5989 113.807C96.4741 113.116 96.9501 112.302 96.6891 111.872C96.3666 111.35 95.0922 111.534 93.8638 112.302C92.6355 113.054 91.8831 114.114 92.2055 114.636C92.4666 115.081 93.3879 115.02 94.4166 114.544L109.863 140.127L88.7508 177.858L78.3557 155.729L91.054 134.446L76.3596 107.833L62.0491 109.154L52.9439 90.6495L59.7459 81.1439L31.3246 29.0247C31.9081 28.5947 32.2766 28.1647 32.1691 27.9651C32.0463 27.7347 31.2939 27.9651 30.4955 28.4411C29.697 28.9325 29.1443 29.5161 29.2671 29.7464V29.7618Z" fill="url(#paint7_radial_11_240)"/>
</g>
</g>
<defs>
<radialGradient id="paint0_radial_11_240" cx="0" cy="0" r="1" gradientUnits="userSpaceOnUse" gradientTransform="translate(240.589 209.959) rotate(58.4028) scale(307.639 307.623)">
<stop offset="0.18" stop-color="#A0D8EB"/>
<stop offset="0.48" stop-color="#00B2F2"/>
<stop offset="0.59" stop-color="#007DAB"/>
<stop offset="0.7" stop-color="#00516E"/>
<stop offset="0.8" stop-color="#002E3E"/>
<stop offset="0.88" stop-color="#00141C"/>
<stop offset="0.95" stop-color="#000507"/>
<stop offset="1"/>
</radialGradient>
<radialGradient id="paint1_radial_11_240" cx="0" cy="0" r="1" gradientUnits="userSpaceOnUse" gradientTransform="translate(240.586 209.962) rotate(58.4028) scale(307.639 307.623)">
<stop offset="0.18" stop-color="#A0D8EB"/>
<stop offset="0.48" stop-color="#00B2F2"/>
<stop offset="0.59" stop-color="#007DAB"/>
<stop offset="0.7" stop-color="#00516E"/>
<stop offset="0.8" stop-color="#002E3E"/>
<stop offset="0.88" stop-color="#00141C"/>
<stop offset="0.95" stop-color="#000507"/>
<stop offset="1"/>
</radialGradient>
<radialGradient id="paint2_radial_11_240" cx="0" cy="0" r="1" gradientUnits="userSpaceOnUse" gradientTransform="translate(240.59 209.958) rotate(58.4028) scale(307.639 307.623)">
<stop offset="0.18" stop-color="#A0D8EB"/>
<stop offset="0.48" stop-color="#00B2F2"/>
<stop offset="0.59" stop-color="#007DAB"/>
<stop offset="0.7" stop-color="#00516E"/>
<stop offset="0.8" stop-color="#002E3E"/>
<stop offset="0.88" stop-color="#00141C"/>
<stop offset="0.95" stop-color="#000507"/>
<stop offset="1"/>
</radialGradient>
<radialGradient id="paint3_radial_11_240" cx="0" cy="0" r="1" gradientUnits="userSpaceOnUse" gradientTransform="translate(240.585 209.961) rotate(58.4029) scale(307.639 307.623)">
<stop offset="0.18" stop-color="#A0D8EB"/>
<stop offset="0.48" stop-color="#00B2F2"/>
<stop offset="0.59" stop-color="#007DAB"/>
<stop offset="0.7" stop-color="#00516E"/>
<stop offset="0.8" stop-color="#002E3E"/>
<stop offset="0.88" stop-color="#00141C"/>
<stop offset="0.95" stop-color="#000507"/>
<stop offset="1"/>
</radialGradient>
<radialGradient id="paint4_radial_11_240" cx="0" cy="0" r="1" gradientUnits="userSpaceOnUse" gradientTransform="translate(240.59 209.961) rotate(58.4028) scale(307.639 307.623)">
<stop offset="0.18" stop-color="#A0D8EB"/>
<stop offset="0.48" stop-color="#00B2F2"/>
<stop offset="0.59" stop-color="#007DAB"/>
<stop offset="0.7" stop-color="#00516E"/>
<stop offset="0.8" stop-color="#002E3E"/>
<stop offset="0.88" stop-color="#00141C"/>
<stop offset="0.95" stop-color="#000507"/>
<stop offset="1"/>
</radialGradient>
<radialGradient id="paint5_radial_11_240" cx="0" cy="0" r="1" gradientUnits="userSpaceOnUse" gradientTransform="translate(240.59 209.959) rotate(58.4028) scale(307.639 307.623)">
<stop offset="0.18" stop-color="#A0D8EB"/>
<stop offset="0.48" stop-color="#00B2F2"/>
<stop offset="0.59" stop-color="#007DAB"/>
<stop offset="0.7" stop-color="#00516E"/>
<stop offset="0.8" stop-color="#002E3E"/>
<stop offset="0.88" stop-color="#00141C"/>
<stop offset="0.95" stop-color="#000507"/>
<stop offset="1"/>
</radialGradient>
<radialGradient id="paint6_radial_11_240" cx="0" cy="0" r="1" gradientUnits="userSpaceOnUse" gradientTransform="translate(240.595 209.959) rotate(58.4028) scale(307.639 307.623)">
<stop offset="0.18" stop-color="#A0D8EB"/>
<stop offset="0.48" stop-color="#00B2F2"/>
<stop offset="0.59" stop-color="#007DAB"/>
<stop offset="0.7" stop-color="#00516E"/>
<stop offset="0.8" stop-color="#002E3E"/>
<stop offset="0.88" stop-color="#00141C"/>
<stop offset="0.95" stop-color="#000507"/>
<stop offset="1"/>
</radialGradient>
<radialGradient id="paint7_radial_11_240" cx="0" cy="0" r="1" gradientUnits="userSpaceOnUse" gradientTransform="translate(240.591 209.961) rotate(58.4028) scale(307.639 307.623)">
<stop offset="0.18" stop-color="#A0D8EB"/>
<stop offset="0.48" stop-color="#00B2F2"/>
<stop offset="0.59" stop-color="#007DAB"/>
<stop offset="0.7" stop-color="#00516E"/>
<stop offset="0.8" stop-color="#002E3E"/>
<stop offset="0.88" stop-color="#00141C"/>
<stop offset="0.95" stop-color="#000507"/>
<stop offset="1"/>
</radialGradient>
<clipPath id="clip0_11_240">
<rect width="472" height="377" fill="white"/>
</clipPath>
</defs>
</svg>
