<svg width="385" height="12" viewBox="0 0 385 12" fill="none" xmlns="http://www.w3.org/2000/svg">
<mask id="mask0_115_2559" style="mask-type:alpha" maskUnits="userSpaceOnUse" x="0" y="0" width="385" height="12">
<rect width="385" height="12" fill="#760A16"/>
</mask>
<g mask="url(#mask0_115_2559)">
<path d="M57.8286 -2.53772L58.7696 -2.69589L56.9385 -2.92267L57.8163 -3.08867C58.6964 -3.08715 59.8368 -2.83842 60.4573 -2.97058C60.5332 -3.09855 59.5748 -3.13961 59.3302 -3.24157C59.1138 -3.34607 58.9372 -3.44988 58.8024 -3.55178C59.2818 -3.55068 59.8087 -3.52603 60.3521 -3.47929C61.0829 -3.40294 61.7997 -3.36583 62.4234 -3.37204C63.6989 -3.35142 64.9312 -3.37199 66.3179 -3.36746L65.8565 -3.67542L67.6437 -3.60338C67.8331 -3.57992 68.0588 -3.61765 68.245 -3.58862C69.7938 -3.34305 70.4492 -3.47687 71.1927 -3.58783C71.3452 -3.61654 71.5288 -3.63798 71.7388 -3.65158C73.8049 -3.59275 75.668 -3.24853 77.5288 -3.07182C77.879 -3.02671 78.2149 -2.96879 78.5127 -2.90219C79.1599 -2.77271 79.8798 -2.667 80.6065 -2.59472C81.3333 -2.52244 82.0437 -2.48592 82.6728 -2.48847C84.064 -2.49133 85.6357 -2.40569 87.2359 -2.23983C87.7117 -2.1852 88.1879 -2.14917 88.634 -2.13402C89.0801 -2.11886 89.4865 -2.12492 89.8269 -2.15183L90.9088 -1.97603C91.3778 -2.04736 91.9724 -2.0865 92.6567 -2.09107C93.3409 -2.09563 94.1005 -2.06553 94.8893 -2.00259C95.7299 -1.93431 96.5838 -1.88828 97.4559 -1.81609C99.2575 -1.67808 101.011 -1.59368 102.662 -1.5655C105.12 -1.48201 107.521 -1.41746 110.001 -1.31336C111.553 -1.26312 113.064 -1.23548 114.527 -1.2306C116.279 -1.21095 118.175 -1.11581 120.122 -0.949774C120.029 -0.793995 119.175 -0.840017 118.602 -0.845289C116.754 -0.871181 114.862 -0.938275 112.96 -0.988677C112.104 -1.00835 111.271 -1.0158 110.466 -1.01098C109.121 -1.01744 107.702 -1.05894 106.236 -1.13479C103.919 -1.21825 101.675 -1.25837 99.5292 -1.25474C99.361 -1.24857 99.2068 -1.23764 99.0693 -1.22212C99.0406 -1.20868 99.035 -1.19173 99.0529 -1.17291C99.0708 -1.15408 99.1117 -1.134 99.1716 -1.11459C99.2315 -1.09519 99.3084 -1.0771 99.3951 -1.06207C99.4817 -1.04703 99.5752 -1.03555 99.6664 -1.02873C100.519 -0.923156 101.434 -0.809769 102.238 -0.793819C102.269 -0.792625 102.302 -0.789904 102.335 -0.785846C102.368 -0.781789 102.399 -0.776497 102.428 -0.770359C104.227 -0.547486 105.707 -0.585201 107.108 -0.54894C109.436 -0.45094 111.679 -0.405164 113.805 -0.412303C114.126 -0.411818 114.473 -0.399078 114.833 -0.374545C117.059 -0.275095 119.141 -0.263972 120.981 -0.341679C121.738 -0.361367 122.442 -0.405561 123.256 -0.4063C123.757 -0.409341 124.193 -0.437544 124.538 -0.489219C124.884 -0.540895 125.13 -0.614974 125.264 -0.707002C125.607 -0.65855 125.956 -0.615369 126.306 -0.577976C126.515 -0.556595 126.715 -0.550915 126.866 -0.562104C127.018 -0.573292 127.109 -0.600512 127.121 -0.638257C127.184 -0.743965 126.707 -0.79705 126.293 -0.842317C126.543 -0.864987 126.824 -0.878324 127.13 -0.882006C128.854 -0.90616 130.703 -0.877652 132.637 -0.797108C134.139 -0.700698 135.338 -0.779169 136.917 -0.643212C137.107 -0.619752 137.263 -0.654186 137.437 -0.662454C137.892 -0.705992 138.458 -0.715778 139.087 -0.690956C139.716 -0.666132 140.389 -0.607451 141.046 -0.520001C141.866 -0.758922 143.636 -0.485975 144.943 -0.461444C145.345 -0.33994 144.883 -0.361301 144.864 -0.32792C144.844 -0.294538 144.864 -0.327927 144.706 -0.347478C143.401 -0.175408 141.613 -0.137888 139.593 -0.240191C139.219 -0.239765 138.863 -0.231926 138.528 -0.216749C138.021 -0.195266 137.449 -0.197411 136.838 -0.22309C136.17 -0.241949 135.556 -0.232992 135.026 -0.196652C134.721 -0.197244 134.464 -0.179038 134.277 -0.143713C134.09 -0.108387 133.98 -0.0570843 133.958 0.00542437C134.161 0.0536146 134.387 0.0977087 134.626 0.135957C135.874 0.286974 137.118 0.349484 138.114 0.311188C139.847 0.245203 141.91 0.309593 143.754 0.287068C145 0.277942 146.326 0.303935 147.706 0.364564C147.706 0.364564 147.67 0.425763 147.667 0.431326C147.83 0.457824 148.002 0.479083 148.172 0.493888C148.172 0.493888 148.172 0.493889 148.188 0.466071C148.113 0.439356 148.01 0.414226 147.892 0.393588L147.482 0.342756C147.761 0.329528 148.022 0.290143 148.312 0.314206C148.925 0.358912 149.51 0.377786 150.033 0.369706C150.556 0.361626 151.006 0.326752 151.356 0.267183C151.976 0.190835 152.747 0.156116 153.619 0.165266C154.288 0.15693 154.932 0.139017 155.549 0.111612C155.549 0.111612 155.588 0.0448553 155.88 0.00937295C155.604 -0.034389 155.315 -0.070125 155.028 -0.0961941C153.779 -0.161323 152.526 -0.220889 151.299 -0.265416C150.847 -0.270227 150.422 -0.262766 150.032 -0.24318C148.952 -0.220261 147.739 -0.25279 146.463 -0.338871C146.463 -0.338871 146.21 -0.370149 146.084 -0.385789C146.442 -0.532543 147.676 -0.385625 148.176 -0.48501C148.48 -0.483202 149.015 -0.470704 148.996 -0.496869C148.955 -0.531782 148.95 -0.564219 148.982 -0.591847C149.014 -0.619476 149.082 -0.641617 149.182 -0.656677C149.281 -0.671739 149.41 -0.679352 149.558 -0.678966C149.706 -0.678578 149.87 -0.670198 150.039 -0.654438C151.444 -0.569174 152.767 -0.545462 153.928 -0.584757C154.368 -0.583999 154.862 -0.558728 155.298 -0.552406C155.566 -0.54479 155.81 -0.549025 156.017 -0.564877C157.073 -0.681619 158.493 -0.690145 160.064 -0.589174C160.824 -0.552871 161.534 -0.548018 162.157 -0.574859C162.6 -0.579662 162.788 -0.496663 163.104 -0.457562L164.445 -0.375138L162.723 -0.271858C163.091 -0.0351733 163.384 0.0428688 163.985 0.0576145C164.862 0.0798814 165.716 0.0899411 166.542 0.0877312C167.154 0.0857855 167.658 0.0348151 168.486 0.125348C168.632 0.140115 168.772 0.144893 168.884 0.138886C169.853 0.0585099 171.02 0.0400638 172.305 0.0848069C172.97 -0.0657016 174.104 0.0806318 175.152 0.198536C175.49 0.0851636 174.877 0.0331218 174.512 -0.0360536C175.388 -0.0289721 176.272 -0.0330161 177.177 -0.016462C177.449 -0.0224874 177.761 -0.0121788 178.086 0.0136548C178.412 0.0394873 178.743 0.0801366 179.054 0.132426C179.206 0.166213 179.389 0.191641 179.565 0.203432C179.741 0.215221 179.896 0.212471 179.999 0.19575C180.469 0.146436 181.222 0.191857 181.61 0.108557C181.748 0.0894004 181.945 0.086726 182.167 0.101003C182.388 0.115278 182.619 0.14558 182.818 0.186477C182.6 0.199237 182.406 0.21933 182.24 0.246314C181.646 0.333969 181.864 0.480432 182.619 0.693363C183.778 0.681653 184.962 0.684978 186.036 0.644847C186.635 0.608823 187.369 0.620084 188.155 0.677369C188.941 0.734651 189.749 0.835686 190.487 0.969108C190.754 1.02041 191.058 1.05595 191.34 1.06866C191.621 1.08136 191.858 1.07031 192.005 1.03769C192.096 0.999971 192.124 0.952228 192.087 0.898605L191.33 0.80477C191.33 0.80477 191.359 0.754697 191.366 0.74357L192.455 0.735157C193.032 0.734864 193.633 0.749615 194.178 0.745412C194.978 0.717468 195.891 0.733043 196.861 0.791172C197.756 0.850779 198.636 0.895833 199.493 0.925939C200.321 0.956926 200.922 0.858139 201.711 0.842362C202.307 0.83047 202.963 0.843179 203.654 0.87999C204.847 0.945279 205.942 0.945401 206.839 0.880342C207.885 1.23086 208.394 1.28786 209.365 1.19314L209.821 1.16608L209.946 1.24126L210.295 1.22473C210.948 1.21001 211.6 1.19529 212.281 1.19004C213.228 1.22257 214.25 1.31008 215.248 1.44405C215.438 1.4675 215.695 1.54721 215.862 1.60962C216.028 1.67202 216.391 1.86028 216.657 1.98284C216.367 2.0723 216.045 2.15785 215.815 2.2607C215.792 2.27827 215.794 2.29922 215.821 2.32187C215.849 2.34452 215.901 2.36824 215.973 2.39111C216.045 2.41399 216.135 2.43538 216.237 2.45358C216.338 2.47177 216.447 2.48627 216.556 2.49589C216.768 2.51663 216.978 2.53046 217.176 2.5368C218.151 2.54774 219.086 2.53961 219.969 2.51249C220.292 2.47422 220.734 2.47059 221.224 2.50216C221.715 2.53374 222.227 2.59872 222.678 2.6868C223.835 2.63392 225.178 2.64954 226.616 2.73258C228.137 2.68208 229.974 2.7842 231.395 2.67356C231.362 2.72919 231.509 2.82498 231.714 2.88017C232.037 2.96399 232.403 3.04168 232.797 3.10994L235.802 3.24321C235.914 3.31174 236.055 3.38111 236.221 3.45043C236.336 3.50518 236.534 3.55875 236.776 3.59979C237.017 3.64084 237.282 3.66613 237.514 3.67029C238.112 3.6906 238.614 3.64519 239.327 3.75738C238.229 3.86342 236.748 3.84934 235.148 3.71762C233.645 3.61745 232.199 3.56738 230.865 3.56929C230.424 3.56853 229.845 3.57438 229.707 3.63497C229.402 3.80624 228.605 3.77916 227.675 3.74757C226.944 3.71299 226.277 3.71687 225.728 3.7589C225.179 3.80092 224.763 3.87989 224.516 3.98931C224.453 4.09502 224.603 4.18524 225.244 4.24675L227.911 4.4934C228.304 4.46169 228.677 4.42416 229.028 4.38095C229.62 4.32356 230.35 4.30781 231.163 4.33492C231.976 4.36202 232.849 4.43127 233.714 4.53725C234.156 4.59199 234.597 4.64673 234.918 4.62072C235.199 4.59085 235.458 4.55507 235.693 4.51367C235.74 4.48593 235.759 4.45399 235.749 4.41909C235.919 4.43532 236.089 4.45641 236.254 4.48165C237.571 4.77609 238.59 4.771 239.517 4.69462C239.767 4.67192 239.958 4.63584 240.212 4.60757C240.466 4.57931 240.556 4.54262 240.786 4.5533C242.627 4.64987 243.157 4.32733 244.708 4.34029C244.784 4.32769 244.831 4.30885 244.845 4.28552C244.858 4.26218 244.839 4.2351 244.787 4.20676C244.678 4.18118 244.551 4.15917 244.419 4.14277C244.286 4.12637 244.152 4.11611 244.03 4.11292C243.316 4.07154 242.685 4.08422 242.246 4.14883C241.935 4.17523 241.606 4.19626 241.26 4.21182L239.707 3.74475C241.212 3.78756 242.635 3.78728 243.943 3.74391C244.229 3.71955 244.712 3.76152 245.114 3.76949L248.07 3.81315C248.678 3.81677 249.196 3.74355 250.044 3.91423C250.044 3.91423 250.603 3.94175 250.753 3.91845C250.902 3.89514 251.564 3.7502 251.959 3.65577C252.418 3.68269 253.052 3.75534 253.338 3.73098C253.837 3.67116 254.268 3.59447 254.625 3.50229L256.411 3.63389C256.409 3.75078 256.344 3.86076 256.217 3.96214C256.077 4.0599 256.082 4.17726 256.231 4.30462C256.379 4.43197 256.667 4.5657 257.07 4.69489L258.834 5.3791C259.121 5.42492 259.428 5.45576 259.712 5.46744C259.996 5.47912 260.244 5.47106 260.421 5.44438C261.18 5.36514 262.03 5.30321 262.789 5.22397C263.767 5.34518 263.516 5.54096 264.227 5.71269L266.532 5.99812C266.883 6.26262 267.241 6.516 266.172 6.60455C265.96 6.62003 266.103 6.72139 265.909 6.76304C266.74 6.96153 267.654 7.02095 268.496 7.14321C268.829 7.23114 269.106 7.32421 269.316 7.41794C269.547 7.55906 270.014 7.70322 270.618 7.81928C271.221 7.93534 271.912 8.014 272.541 8.03825C273.596 8.11256 274.677 8.22416 275.734 8.36806C276.095 8.4181 276.466 8.45456 276.823 8.47497C277.179 8.49539 277.512 8.4993 277.799 8.48643C278.822 8.46378 279.688 8.38586 280.34 8.25776C280.985 8.14905 281.855 8.09666 282.871 8.10533C284.607 8.32038 284.957 8.64443 286.008 8.92985L284.193 8.96185C284.127 9.07312 284.247 9.21341 283.503 9.21084C282.759 9.20828 283.137 9.31474 283.378 9.42226C283.463 9.47634 283.629 9.53198 283.847 9.57974C284.066 9.62751 284.324 9.66446 284.578 9.68436L286.123 9.82198C286.671 9.87435 287.201 9.89671 287.655 9.88662C288.11 9.87652 288.471 9.83435 288.698 9.76473C288.96 9.69863 289.321 9.65391 289.759 9.63333C290.318 9.5794 290.777 9.4992 291.12 9.39576L293.301 9.54647C293.394 9.44252 293.694 9.36964 294.149 9.34014C294.605 9.31064 295.189 9.32632 295.803 9.38456L297.273 9.47706C298.908 9.57799 299.266 9.54476 299.745 9.2517L297.785 8.72824C298.07 8.59035 298.345 8.46916 298.62 8.34797C298.132 8.17551 297.48 8.01239 296.731 7.87518C296.033 7.72775 295.314 7.58496 294.579 7.44736C293.781 7.30675 292.939 7.18449 291.948 7.02599C291.775 6.97471 291.524 6.88388 291.203 6.79636C290.882 6.71131 290.547 6.62795 290.199 6.54659C290.265 6.43531 290.324 6.33517 290.198 6.206C290.808 6.24722 291.438 6.3193 292.031 6.41576C292.625 6.51221 293.163 6.63 293.598 6.75851C293.671 6.7813 293.76 6.8027 293.86 6.82128C293.961 6.83986 294.069 6.85517 294.178 6.86618C295.249 6.94514 295.762 7.1101 296.286 7.31235C296.638 7.41574 297.093 7.50755 297.587 7.57506C298.534 7.69236 299.461 7.84305 300.367 7.97313C300.644 8.01647 300.932 8.05216 301.219 8.0787C302.166 8.16309 303.119 8.28109 304.029 8.4267C304.326 8.4637 304.611 8.51268 304.861 8.56953C305.11 8.62637 305.316 8.68944 305.462 8.75346C305.237 8.8236 305.115 8.91215 305.105 9.01374C305.065 9.08051 305.73 9.2166 306.044 9.31525C306.358 9.4139 305.742 9.36742 305.533 9.37734C304.674 9.39642 304.515 9.43642 305.029 9.65536C305.201 9.72421 305.315 9.79309 305.364 9.85773C305.413 9.92237 305.397 9.9814 305.315 10.0311C305.193 10.237 304.822 10.406 304.567 10.6073C304.963 10.74 305.624 10.8816 305.696 11.0458C305.731 11.0822 305.804 11.1208 305.911 11.1588C306.017 11.1968 306.154 11.2332 306.312 11.2654C306.727 11.3349 307.105 11.418 307.416 11.5082C307.727 11.5985 307.962 11.6936 308.104 11.786C308.151 11.8242 308.263 11.8647 308.418 11.8995C308.574 11.9343 308.761 11.9606 308.942 11.9733C309.159 11.989 309.353 11.9869 309.484 11.9676C309.615 11.9483 309.674 11.9132 309.647 11.8696C309.653 11.7877 309.624 11.7023 309.562 11.6141C309.598 11.5529 309.634 11.4917 309.491 11.3904C310.138 11.4274 310.817 11.5015 311.455 11.6047C312.093 11.7079 312.665 11.8363 313.109 11.9758C313.599 12.1202 314.052 12.2718 314.595 12.4406C314.483 12.6298 314.483 12.6298 315.641 12.9642L321.779 13.1273L323.037 13.3488C324.211 13.5419 324.49 13.5287 325.226 13.4289L325.722 13.335C326.764 13.4641 327.964 13.6126 328.616 13.3709C328.827 13.5285 328.965 13.5814 328.917 13.6053C328.606 13.8379 328.066 14.0352 327.317 14.1895C327.126 14.2255 326.992 14.2806 326.77 14.3127C326.053 14.4943 325.886 14.775 326.305 15.0972C326.512 15.2398 326.814 15.3858 327.2 15.5306C326.635 15.7314 325.887 15.8979 324.975 16.0254C324.202 16.1241 323.564 16.2562 323.082 16.418C322.649 16.5811 322.001 16.7037 321.174 16.7788C320.755 16.8108 320.448 16.8737 320.286 16.9615C320.238 17.1991 320.349 17.4536 320.617 17.7191C320.667 17.7999 320.81 17.8872 321.035 17.9741C321.26 18.061 321.56 18.1451 321.912 18.22C321.912 18.22 322.082 18.2768 322.164 18.3108C322.232 18.5985 321.977 18.8521 321.418 19.0545C321.326 19.1119 321.139 19.1534 320.875 19.1745C320.612 19.1955 320.283 19.1954 319.924 19.174C319.165 19.1397 318.456 19.1355 317.722 19.1163C316.93 19.089 316.234 19.1105 315.704 19.1784C315.175 19.2463 314.833 19.3582 314.714 19.5022C314.706 19.543 314.683 19.582 314.645 19.619C314.622 19.6381 314.61 19.6586 314.608 19.6802L316.294 20.1518L314.387 20.3396C314.275 20.5287 315.191 20.6421 315.65 20.7826L315.366 20.8609C315.001 20.9053 314.509 20.8205 314.063 20.7713L313.621 20.7165L313.569 20.8056C313.294 20.9268 312.29 20.7905 311.898 20.8794C311.507 20.9682 311.786 21.0685 312.373 21.1651C312.781 21.2368 313.219 21.2941 313.654 21.3324C314.089 21.3708 314.51 21.3893 314.885 21.3866C315.109 21.3771 315.295 21.3554 315.431 21.3229C316.223 21.1842 317.097 21.0651 318.048 20.9662C318.777 20.8775 319.69 20.8397 320.723 20.8556C321.026 20.8489 321.392 20.8699 321.756 20.915C322.119 20.96 322.458 21.0262 322.712 21.1019L323.247 21.1144C323.247 21.1144 323.54 21.1925 323.498 21.2052C323.295 21.4365 323.531 21.7191 324.173 22.0114L323.615 22.0378C322.817 22.0108 323.323 22.1868 323.204 22.2736C322.637 22.2572 321.901 22.184 321.633 22.294L321.231 22.2861L321.389 22.3056L321.58 22.2695L322.329 22.434C321.974 22.4617 321.717 22.4955 321.403 22.5104C321.23 22.5234 321.092 22.5462 320.997 22.5776C320.903 22.6091 320.854 22.6484 320.854 22.6932C320.855 22.7623 320.762 22.8204 320.583 22.862C320.404 22.9036 320.145 22.9273 319.832 22.931C319.458 22.9325 319.245 23.0075 319.025 23.0341L319.977 23.4864C319.977 23.4864 319.504 23.4278 319.762 23.5075L319.795 23.4518L320.371 23.5651C320.787 23.6643 321.078 23.6884 321.323 23.6173C321.569 23.5461 321.513 23.6407 321.63 23.6135C321.587 23.6858 321.32 23.7364 321.091 23.7797C320.827 23.8137 320.528 23.8387 320.2 23.8544C320.791 24.1724 320.819 24.1819 319.956 24.2661C319.093 24.3503 319.39 24.4767 318.668 24.4948C317.946 24.5128 318.767 24.728 319.251 24.77C319.609 24.7975 319.974 24.8405 320.322 24.8959C320.669 24.9513 320.99 25.0178 321.263 25.0909L321.118 25.3357C320.905 25.3154 320.692 25.289 320.487 25.2575C319.787 25.123 319.15 24.9964 318.528 25.0746L318.824 25.2606L316.652 25.1527C316.708 25.2921 317.039 25.4509 317.575 25.5956C317.494 25.6751 317.445 25.7587 317.427 25.846C317.391 25.9072 317.176 25.8687 317.037 25.8753C316.539 25.8855 316.131 25.927 315.848 25.996C315.564 26.0651 315.415 26.1596 315.413 26.2713C315.356 26.3659 316.121 26.5621 316.6 26.5557C317.794 26.5745 319.085 26.6473 320.404 26.77C321.207 26.786 321.321 26.5373 322.643 26.707C322.67 26.8219 322.5 26.9149 322.161 26.9719C321.821 27.029 321.33 27.0471 320.762 27.0234C321.085 27.2784 322.875 27.3449 322.955 27.6115C322.509 27.5927 322.032 27.5484 321.572 27.483C321.111 27.4176 320.683 27.3333 320.329 27.2386C320.253 27.2152 320.157 27.1937 320.05 27.176C319.944 27.1583 319.83 27.1449 319.72 27.1372C319.61 27.1295 319.506 27.1277 319.419 27.1319C319.332 27.1361 319.265 27.1462 319.223 27.1612C319.471 27.2576 319.743 27.3691 320.054 27.4733C320.365 27.5775 320.44 27.6226 320.665 27.6444C322.338 27.8516 323.133 28.2249 324.581 28.4698C324.96 28.5168 325.007 28.6659 324.678 28.6491C324.365 28.6322 324.082 28.6344 323.86 28.6554C323.638 28.6765 323.486 28.7155 323.421 28.7681C323.179 28.8296 322.876 28.8784 322.522 28.9135C324.006 29.2965 325.776 29.635 327.666 29.897C328.024 29.9488 328.397 29.9804 328.731 29.9871C329.786 29.9875 330.905 30.0179 332.066 30.0777C332.478 30.094 332.858 30.0925 333.187 30.0732C334.264 30.0275 335.12 30.1275 335.902 30.4095L337.196 30.8564C337.153 30.9287 336.936 31.0093 336.769 31.12L337.779 31.3586L345.492 30.809L347.041 31.3411L349.261 31.3116C349.431 31.3269 349.602 31.3481 349.766 31.3741C350.215 31.5313 350.566 31.6822 351.054 31.8322C351.541 31.9821 352.411 32.0003 353.018 32.177C353.625 32.3537 354.233 32.3573 354.984 32.4623C355.054 32.599 354.982 32.7221 354.77 32.8239C354.7 32.9407 354.319 33.0129 354.253 33.1242C354.26 33.2366 354.118 33.3321 353.84 33.4019C353.562 33.4718 353.156 33.5138 352.66 33.5241C351.271 33.7636 349.595 33.9341 347.684 34.0305C347.516 34.0375 347.376 34.0537 347.275 34.078C347.173 34.1024 347.11 34.1344 347.091 34.1721C347.094 34.2813 346.967 34.3756 346.718 34.4482C346.47 34.5208 346.107 34.5698 345.657 34.5916C345.537 34.596 345.446 34.6097 345.396 34.631C345.225 34.6448 345.101 34.6711 345.035 34.7074C344.968 34.7437 344.963 34.7888 345.019 34.8384C345.075 34.8879 345.19 34.9402 345.353 34.9902C345.517 35.0402 345.723 35.0862 345.951 35.1238C346.283 35.1843 346.622 35.2422 346.967 35.2973C346.947 35.3307 346.605 35.3361 346.655 35.3662C346.79 35.4622 346.821 35.5521 346.746 35.6289C346.671 35.7056 346.492 35.7671 346.223 35.8084L348.067 36.5861C349.186 36.6939 350.283 36.8766 351.151 37.0995C351.152 37.1361 351.102 37.1667 351.006 37.1883C350.91 37.21 350.771 37.2219 350.604 37.2228C350.154 37.2388 349.729 37.2697 349.244 37.2873C348.947 37.3005 348.701 37.3294 348.518 37.3724C348.336 37.4154 348.221 37.4716 348.18 37.5378L349.263 37.8271C348.916 37.8977 348.659 37.9315 348.43 37.9748C348.559 38.0657 348.783 38.1598 349.082 38.2496C349.381 38.3395 349.749 38.4228 350.156 38.4931C350.265 38.5076 350.376 38.5182 350.483 38.5243C350.59 38.5304 350.691 38.5318 350.779 38.5285C351.617 38.4293 352.597 38.6044 353.55 38.7702C354.502 38.9359 355.019 39.0357 355.722 39.1646L357.067 39.1819C357.408 39.2429 357.712 39.3147 357.954 39.3914C358.197 39.4682 358.372 39.5478 358.466 39.6239C358.393 39.7463 357.755 39.6792 357.375 39.6918C356.473 39.768 355.287 39.7518 354.014 39.6458C353.698 39.6067 353.374 39.6382 353.067 39.642C352.404 39.6572 351.767 39.682 351.159 39.7162C350.759 39.7481 350.384 39.7875 350.039 39.8343C349.946 39.9901 351.4 40.1104 350.575 40.1873C350.859 40.2225 350.966 40.2715 351.112 40.2538C352.048 40.355 352.97 40.405 353.771 40.398C355.309 40.3766 357.055 40.4476 358.867 40.6052C360.823 40.7685 362.698 40.8371 364.34 40.8053C364.965 40.8034 365.664 40.8368 366.383 40.903C367.232 40.9947 368.075 41.0524 368.858 41.0722C369.117 41.0729 369.406 41.0885 369.701 41.1178C369.995 41.147 370.288 41.1891 370.554 41.2405C370.531 41.2795 370.277 41.3077 370.334 41.3267C371.144 41.6181 371.472 41.9216 372.719 42.2193C373.572 42.3249 374.55 42.4461 375.108 42.3061C375.665 42.1661 375.465 42.0458 374.356 41.6875C374.597 41.6823 374.887 41.6991 375.175 41.7348C375.464 41.7705 375.732 41.823 375.935 41.883L376.894 42.1511L377.759 42.4075C377.683 42.5354 377.623 42.6356 377.561 42.7413C377.462 42.8536 377.57 42.9902 377.871 43.1321C378.053 43.2096 378.211 43.287 378.344 43.3638C378.884 43.671 379.041 43.9612 378.796 44.2021C378.326 44.5485 377.673 44.8672 376.842 45.1545C375.965 45.4341 375.485 45.7867 374.762 46.0913C374.393 46.23 373.946 46.3544 373.423 46.463C372.433 46.7046 371.348 46.9345 370.354 47.1817C369.361 47.4289 368.239 47.6064 367.135 47.8102C365.492 48.052 363.716 48.2608 361.817 48.4355C360.642 48.5885 359.435 48.7377 358.348 48.9136C357.064 49.1119 355.556 49.2543 353.861 49.3373C352.364 49.4366 351.027 49.5834 349.874 49.7751C349.753 49.7958 349.658 49.8222 349.591 49.8534C349.383 50.0488 348.802 50.1865 347.935 50.2455C347.988 50.3027 348.055 50.3609 348.137 50.4198C348.257 50.49 348.282 50.5557 348.208 50.6083C348.135 50.661 347.966 50.6982 347.724 50.7151C347.031 50.7635 346.455 50.8457 346.022 50.9581C345.862 50.9863 345.764 51.0273 345.734 51.0777C345.704 51.1281 345.744 51.1863 345.85 51.2474C345.944 51.3103 345.951 51.3681 345.87 51.4134C345.789 51.4587 345.623 51.4894 345.395 51.5015C344.808 51.561 344.179 51.6089 343.514 51.6448C342.097 51.724 340.449 51.7231 338.669 51.642C338.48 51.6186 338.289 51.6547 338.068 51.6273C336.81 51.5364 335.641 51.5224 334.703 51.5868C333.604 51.6119 332.455 51.6069 331.296 51.6186C329.621 51.6107 328.076 51.6585 326.705 51.7606C325.136 51.662 324.255 51.8335 322.932 51.8368C321.71 51.8544 320.552 51.8967 319.468 51.9632C317.721 52.0514 315.981 52.1286 314.26 52.2318C312.644 52.2811 311.157 52.3752 309.823 52.5125C309.312 52.5746 308.387 52.4779 308.039 52.608C307.691 52.738 306.988 52.7227 306.42 52.7658L304.629 52.8724C304.321 52.8978 303.982 52.9138 303.618 52.9204C301.952 52.9291 300.799 53.1027 299.253 53.1382L299.095 53.1186C296.35 53.3768 293.209 53.5185 289.763 53.5395C287.751 53.6187 285.551 53.6149 283.415 53.6729C282.906 53.789 281.703 53.646 281.064 53.752C280.425 53.858 279.382 53.7885 278.558 53.8059C277.735 53.8234 276.929 53.867 276.049 53.8654C275.285 53.8659 274.639 53.9133 274.172 54.0032C273.104 54.1517 271.802 54.2391 270.325 54.2613C268.37 54.2999 266.522 54.3875 264.535 54.3682C264.563 54.4765 264.441 54.5686 264.181 54.6351C263.921 54.7016 263.533 54.7401 263.056 54.7465C260.931 54.7879 259.003 54.8955 256.85 54.9273L256.273 54.9276L249.832 54.9898C248.096 55.0018 246.424 55.0216 244.654 55.0353C243.991 54.9532 243.975 55.0945 243.516 55.0676C243.388 54.998 243.237 54.9673 243.011 55.005L242.962 55.0885L235.61 55.1992C232.732 55.2801 229.705 55.3044 226.553 55.2718C225.806 55.28 225.108 55.3076 224.471 55.3543C223.881 55.3714 223.265 55.3789 222.628 55.3769C221.766 55.3558 220.924 55.3452 220.105 55.3451C217.951 55.3769 215.691 55.3598 213.333 55.3364C210.975 55.3131 209.188 55.3545 207.089 55.3514C205.667 55.3485 204.252 55.3345 202.781 55.3015C202.078 55.2862 201.213 55.2028 200.485 55.1725C199.757 55.1421 199.52 55.1425 199.424 55.1903C199.107 55.3243 198.311 55.2377 197.675 55.2246C196.435 55.2023 196.258 55.1566 195.921 54.8103L197.444 54.7003C197.817 54.6647 198.286 54.6585 198.806 54.6821C199.327 54.7058 199.88 54.7585 200.414 54.8352C200.624 54.8681 200.843 54.8941 201.06 54.9116C201.276 54.9292 201.485 54.938 201.675 54.9376C203.211 54.9188 204.725 54.8795 206.201 54.8473L206.417 54.8263L206.431 54.5174C206.235 54.4871 206.033 54.462 205.831 54.4431L198.427 54.2427C196.728 54.1935 194.963 54.0825 193.296 54.0372C191.628 53.9919 190.73 53.9643 189.436 53.9175C188.89 53.8908 188.333 53.8558 187.77 53.8127C187.802 53.7829 187.821 53.7513 187.826 53.7181C187.856 53.668 187.895 53.6012 187.656 53.5477C187.395 53.4721 187.046 53.4076 186.678 53.3669C186.334 53.3401 185.999 53.3249 185.688 53.322C184.187 53.2961 182.472 53.1329 180.909 52.8673L180.363 53.0446C178.016 52.945 175.634 52.8471 173.183 52.7525C172.692 52.7267 172.177 52.6772 171.676 52.6076C171.139 52.5412 170.645 52.4024 170.08 52.3264C169.522 52.2718 168.968 52.2292 168.427 52.1993C168.574 52.1537 168.767 52.1173 169 52.0911C169.23 52.0819 169.397 52.0534 169.477 52.0097C169.558 51.9661 169.548 51.9094 169.449 51.8481C169.274 51.7429 169.197 51.6438 169.577 51.6311C169.929 51.6071 170.18 51.5552 170.302 51.4814C170.424 51.4076 170.411 51.315 170.265 51.2146C170.201 51.1559 170.156 51.0985 170.13 51.0426L169.972 51.023C169.451 50.8152 168.411 50.7402 167.665 50.5701C167.312 50.5208 166.948 50.4924 166.628 50.4895C165.803 50.4529 164.999 50.437 164.145 50.391C163.737 50.3698 163.311 50.3312 162.891 50.2774C162.291 50.2031 162.228 50.1953 161.879 49.9252C162.42 49.93 162.849 49.8896 163.093 49.811C163.337 49.7324 163.382 49.6205 163.219 49.494C162.773 49.2178 162.302 48.9265 160.283 48.7302C160.941 48.7206 161.575 48.7013 162.181 48.6727C162.357 48.6665 162.49 48.6462 162.56 48.6145C162.63 48.5828 162.634 48.5412 162.573 48.4953C162.512 48.4494 162.388 48.4014 162.217 48.3577C162.046 48.3139 161.837 48.2766 161.618 48.2506C160.553 48.0943 159.441 47.9897 158.408 47.9486C157.538 47.9304 156.752 47.9406 155.736 47.9401L154.536 47.7916C154.556 47.7582 154.38 47.7125 154.425 47.6941C154.73 47.5229 155.066 47.3555 155.412 47.1715C154.859 47.0721 154.38 46.9521 154.03 46.8253C153.679 46.6984 153.472 46.5699 153.431 46.4543C153.401 46.4195 153.409 46.3877 153.454 46.3613C153.499 46.3348 153.58 46.3144 153.691 46.3014C154.007 46.279 154.251 46.2364 154.404 46.1766C154.557 46.1169 154.615 46.0416 154.573 45.9568L153.64 45.6441C150.831 45.4211 148.073 45.2617 145.416 45.169L143.018 45.0989C142.729 45.0153 142.818 44.9786 143.09 44.9765C143.363 44.9744 144.128 44.9976 144.663 45.0101C145.125 45.0265 145.535 45.0157 145.854 44.9788C146.173 44.9419 146.389 44.8801 146.482 44.7994L145.677 44.4429C145.717 44.3761 145.773 44.2815 146.209 44.2879C146.508 44.2801 146.728 44.2465 146.834 44.1925C146.939 44.1384 146.925 44.067 146.793 43.9898C146.773 43.934 146.803 43.8832 146.882 43.8396C147.528 43.836 148.17 43.838 148.757 43.821C149.03 43.8154 149.26 43.7947 149.433 43.7604C149.605 43.7261 149.715 43.679 149.756 43.6222C149.777 43.5669 149.725 43.5038 149.605 43.4381C149.485 43.3724 149.3 43.3059 149.065 43.244C148.146 43.1675 147.306 43.1665 146.728 43.2413C146.522 43.2999 146.191 43.3319 145.779 43.3331C145.367 43.3343 144.893 43.3047 144.42 43.248C143.878 43.1828 143.337 43.1541 142.894 43.1671C142.452 43.1802 142.136 43.2341 142.005 43.3193C141.449 43.2862 140.956 43.2609 140.469 43.2245C139.895 43.1786 139.352 43.1651 138.899 43.1854C138.175 43.1998 137.395 43.1914 136.576 43.1604C134.216 43.0831 131.852 43.0113 129.567 42.9791C128.962 42.9699 128.439 42.9947 127.841 42.9744C127.244 42.9541 126.771 43.009 126.023 42.8985C125.88 42.8813 125.737 42.8702 125.604 42.8662C125.471 42.8622 125.352 42.8653 125.257 42.8753C123.944 42.9627 122.404 42.975 120.729 42.9116C118.433 42.8961 116.053 42.8521 113.755 42.8422C113.081 42.8507 112.444 42.8737 111.85 42.9109C111.399 42.9333 110.926 42.9485 110.434 42.9564C110.057 42.9635 109.697 42.9427 109.76 43.064C109.824 43.1854 109.259 43.1095 108.933 43.087C107.815 43.0282 106.671 42.9486 105.516 42.849C104.378 42.7407 103.263 42.6778 102.237 42.6638C101.497 42.6557 100.733 42.6865 99.7805 42.5208C99.8168 42.4596 99.853 42.3984 100.06 42.3345C99.2837 42.1586 98.3976 42.0074 97.4753 41.8931C96.553 41.7789 95.6211 41.705 94.7565 41.6776L93.5644 41.3448C93.2708 41.3057 92.9712 41.2773 92.6836 41.2612C92.396 41.245 92.1266 41.2416 91.8916 41.2511C91.71 41.2559 91.4888 41.2435 91.2684 41.2163C91.048 41.189 90.8433 41.1486 90.6919 41.1025C90.4655 41.0439 90.1891 40.9934 89.897 40.9572C89.605 40.921 89.3105 40.9008 89.0503 40.8992C88.2312 40.863 87.3568 40.7794 86.5167 40.6571C86.2987 40.5853 86.1621 40.5112 86.1237 40.4438C86.0853 40.3765 86.147 40.3188 86.3009 40.278C86.5491 40.2059 86.6884 40.114 86.7105 40.0079C86.7326 39.9018 86.6369 39.7838 86.4294 39.6609C86.3231 39.5854 86.2876 39.514 86.325 39.4509C86.3624 39.3878 86.4719 39.3343 86.647 39.2937C87.3005 39.1059 87.1257 39.0006 86.0565 38.689C85.8828 38.6371 85.6734 38.5885 85.4417 38.5465C85.2099 38.5044 84.9609 38.4697 84.7103 38.4447C84.1223 38.3939 83.5423 38.3561 82.981 38.332C82.6653 38.2929 82.3415 38.3245 81.9778 38.3093C80.159 38.2333 79.8928 38.1108 79.3037 37.8467L78.8744 37.6562C78.0783 37.5019 77.2076 37.3737 76.325 37.2809C75.4424 37.1881 74.57 37.133 73.7705 37.1196C73.4528 37.1186 73.0875 37.0922 72.7306 37.0446C71.5692 36.8988 70.393 36.7979 69.28 36.7486C68.5864 36.7208 67.8388 36.649 67.1269 36.5418C66.415 36.4345 65.7691 36.2964 65.2668 36.144C64.8156 36.0068 64.2253 35.8835 63.578 35.7916C62.8203 35.6977 62.7502 35.5875 63.1733 35.5025C63.5964 35.4176 64.305 35.3083 64.934 35.219C65.1529 35.1886 65.2885 35.1393 65.3258 35.0764C65.3631 35.0135 65.3005 34.9396 65.1451 34.8629C65.0453 34.7316 65.028 34.6071 65.0936 34.4923C65.1287 34.4445 65.1045 34.3898 65.0226 34.3318C64.9408 34.2738 64.8032 34.2138 64.6191 34.1559C64.435 34.098 64.2088 34.0436 63.9556 33.9962C63.7024 33.9489 63.4281 33.9097 63.1513 33.8814C61.9832 33.7368 60.8466 33.596 59.6555 33.4903C59.1563 33.4404 58.6576 33.3787 58.1717 33.3065C57.177 33.128 56.1128 32.98 55.041 32.871C54.5323 32.8223 54.035 32.7371 53.6567 32.6338C52.4634 32.3557 51.3638 32.0633 50.378 31.7619C50.1403 31.6685 49.8294 31.5773 49.4647 31.4941C49.1 31.4109 48.6893 31.3375 48.2585 31.2785C47.9112 31.2355 47.6285 31.1407 47.3609 31.0777C47.1664 30.9318 47.1456 30.7968 47.3005 30.6854C47.4554 30.5741 47.781 30.4899 48.2466 30.4409C48.6881 30.3821 49.1012 30.3139 49.4829 30.2417C49.943 30.1834 50.4899 30.1483 51.1033 30.1378C51.8299 30.1065 52.3671 30.017 52.645 29.8809C50.6561 29.6346 48.7647 29.2809 47.0213 29.3635L45.6967 29.1398C45.7495 29.0507 45.7956 28.9729 45.8385 28.9005C46.1535 28.7689 46.2519 28.6028 46.1254 28.4165C46.021 28.3263 46.0304 28.2443 46.1526 28.1787C46.2748 28.1131 46.5055 28.0662 46.8213 28.0428C48.6918 27.8027 50.855 27.6407 52.6092 27.3682C53.1592 27.3171 53.803 27.2939 54.5137 27.2995C55.2011 27.2832 55.1724 27.1602 54.3812 27.0084C53.9372 26.9291 53.4846 26.8532 53.0251 26.7808C50.999 26.7687 50.1736 27.1323 47.8615 27.031L46.7898 26.5519C46.5001 26.5445 46.2188 26.5416 45.9478 26.5432L42.071 26.7379C41.7481 26.7476 41.4967 26.7809 41.3455 26.834C41.1942 26.887 41.1491 26.9577 41.2154 27.038C41.2416 27.1362 41.1882 27.2263 41.0571 27.3051C40.9725 27.3602 41.0266 27.4334 41.2075 27.5088C41.6151 27.6787 41.0921 27.7035 40.7618 27.7462C40.6774 27.7504 40.58 27.75 40.4754 27.7449C40.3708 27.7399 40.2609 27.7304 40.1523 27.7169C40.0436 27.7035 39.9383 27.6863 39.8424 27.6665C39.7465 27.6467 39.662 27.6246 39.5937 27.6016C39.0118 27.4399 38.5028 27.2694 37.9308 27.091C38.3369 26.9204 37.859 26.6402 38.4928 26.4858C38.5636 26.455 38.592 26.4174 38.5761 26.3754C38.5602 26.3333 38.5004 26.2878 38.4003 26.2415C38.1423 26.1219 38.0194 26.0053 38.044 25.9035C38.0687 25.8017 38.24 25.7183 38.5407 25.6616L38.5769 25.6004C37.7839 25.3947 37.994 25.2117 37.6825 24.994L36.9196 24.8517C35.0216 24.5092 35.0183 24.5147 33.3843 24.5273C33.0549 24.397 33.4734 24.3771 33.7872 24.3623L36.4154 24.216C38.1338 24.1183 39.9022 24.0506 41.8218 24.0137C43.7414 23.9767 45.8814 23.8536 47.8656 23.7649C47.9659 23.758 48.0426 23.7444 48.0894 23.7253C48.1361 23.7062 48.1514 23.682 48.1341 23.6548C48.0553 23.6255 47.952 23.5971 47.832 23.5719C47.7121 23.5468 47.5784 23.5253 47.4409 23.5093C46.8095 23.4311 46.1617 23.3807 45.4888 23.3153L44.2345 23.2017L43.8486 23.0524C43.5974 22.9616 43.4258 22.8507 43.0918 22.7855C42.8164 22.7368 42.5176 22.6999 42.2263 22.6785C41.935 22.6571 41.6619 22.6521 41.4356 22.664C40.808 22.6937 40.2402 22.7369 39.6408 22.7761C39.0415 22.8153 38.7112 22.858 38.1915 22.8773C37.1356 22.886 36.1151 22.9092 35.1345 22.9466C34.3085 23.035 33.5446 23.1399 32.8474 23.2605C32.4125 23.3082 32.0058 23.3653 31.2632 23.3032C30.9109 23.2468 30.6071 23.1729 30.4055 23.0943C30.2039 23.0158 30.1176 22.9378 30.162 22.8741C30.2019 22.8243 30.3147 22.7848 30.4898 22.7595C30.6649 22.7341 30.8965 22.7238 31.1628 22.7294C31.9082 22.7202 32.5975 22.6893 33.2167 22.6374C34.0787 22.5433 35.128 22.5027 36.3034 22.518C36.702 22.5316 36.9692 22.481 37.3179 22.4645C37.6665 22.448 37.9619 22.4069 38.3507 22.4372C39.5583 22.5151 40.1374 22.3957 40.8611 22.3181C41.1061 22.2837 41.2579 22.2281 41.2998 22.1574C41.3417 22.0868 41.272 22.0037 41.0985 21.9175C40.7645 21.7458 40.3559 21.5731 39.8791 21.4022C39.6337 21.3182 39.3192 21.2384 38.9605 21.1691C38.6018 21.0998 38.2084 21.0429 37.8113 21.0028C37.5737 20.8976 37.4469 20.7942 37.4425 20.7019C37.438 20.6096 37.5561 20.5313 37.7859 20.4741C38.3715 20.3436 38.8907 20.2108 40.203 20.2838C40.82 20.3116 41.4006 20.317 41.9218 20.2996C43.078 20.2758 44.4115 20.3279 45.7969 20.4511C46.1554 20.4826 46.5077 20.5041 46.8435 20.515C49.2385 20.5907 51.5204 20.6284 53.809 20.6551C55.0213 20.6679 56.2436 20.664 57.5092 20.7013C60.4772 20.7823 63.179 20.7406 66.0438 20.767C67.5442 20.7806 68.8872 20.7261 70.0023 20.6063C70.2194 20.5662 70.4059 20.5193 70.5596 20.4663C69.8206 20.3272 69.009 20.2171 68.2023 20.1465C67.3957 20.0758 66.6211 20.0471 65.9528 20.063C65.5854 20.1019 65.1104 20.109 64.5811 20.0835C64.0517 20.058 63.4886 20.0009 62.9546 19.9186L64.5072 19.872C65.5367 19.8502 66.5912 19.8435 67.5924 19.8122C69.1832 19.7584 70.6574 19.6722 72.3047 19.6374C73.6346 19.6053 74.8247 19.5234 75.8376 19.3941C76.5693 19.2999 77.4051 19.233 78.3278 19.1949C78.9837 19.1747 78.9837 19.1747 79.403 18.9817C79.0703 18.8569 78.6402 18.8395 78.2349 18.8371C75.8055 18.7586 73.4936 18.7448 71.3462 18.7961C70.2627 18.8006 69.3015 18.8535 68.5087 18.9523C68.3146 18.9939 67.8179 18.9742 67.4193 18.9607C66.1697 18.9401 64.9753 18.946 63.8506 18.9785C62.2956 19.0326 60.5637 19.0198 58.7222 18.9405C58.373 18.8435 58.7749 18.8515 58.7947 18.8181C60.221 18.7559 61.619 18.6842 63.0735 18.6314C63.4711 18.6126 63.8962 18.6033 64.3438 18.6036C66.0151 18.6363 67.4077 18.5457 68.3267 18.3445C68.3729 18.2666 68.9774 18.2758 69.2446 18.2252C69.376 18.1815 69.4635 18.13 69.5046 18.0723C69.1154 17.9286 68.6753 17.9278 68.3365 17.9276C67.3534 17.9437 66.4077 17.9741 65.5038 18.0187C64.6636 18.0612 63.7335 18.0726 62.7388 18.0525C62.0047 18.0332 61.3771 18.063 60.6364 18.0549C60.2346 18.0378 59.8187 18.0103 59.3972 17.9731C59.8666 17.8729 60.5046 17.8112 61.2664 17.7925C61.8441 17.7327 62.5664 17.7146 62.6587 17.5589C62.3859 17.4474 62.0819 17.4456 61.8378 17.4572C61.3298 17.4568 60.8391 17.4638 60.3682 17.4782C59.3699 17.5099 58.2889 17.5103 57.1481 17.4795C56.5474 17.468 55.9774 17.4715 55.4476 17.4899C54.247 17.5144 53.0964 17.5689 51.9972 17.594C49.7454 17.6197 47.6916 17.7117 45.5279 17.7602C45.0463 17.7723 44.6147 17.8143 43.98 17.7417C43.3453 17.6691 43.317 17.6596 43.2421 17.6145C43.0645 17.5392 43.0107 17.4663 43.0918 17.4107C43.2177 17.3589 43.4629 17.33 43.7839 17.3292C45.7181 17.2467 47.5526 17.1309 49.276 16.9823C50.0345 16.9525 50.699 16.8918 51.2464 16.8023C51.6806 16.7407 52.1957 16.6999 52.7754 16.6812C53.6186 16.6366 54.4976 16.6039 55.4089 16.5833C55.8329 16.5722 56.1934 16.5392 56.4693 16.4862C56.7451 16.4332 56.9307 16.3612 57.015 16.2746L55.8979 15.987C55.7223 15.9736 55.5482 15.962 55.3763 15.9522L46.1038 16.1594L45.1855 16.1651C44.179 16.148 43.9331 16.1056 42.9784 15.7723C45.1571 15.6939 46.8699 15.4654 47.946 15.1096C47.6874 15.0713 47.4222 15.0385 47.1567 15.0118C45.4155 14.9277 43.7696 14.9053 42.2823 14.9456C41.3988 14.9496 40.4904 14.9387 39.5787 14.9332C39.8453 14.7692 40.8668 14.8181 41.5326 14.7811C43.1234 14.7232 44.5301 14.6037 45.7077 14.4263C46.1138 14.3571 46.6217 14.3129 47.2084 14.2956C47.7955 14.2897 48.2859 14.2478 48.637 14.1737C48.988 14.0996 49.1891 13.9954 49.2226 13.8703C49.2779 13.757 49.3971 13.6517 49.5783 13.556C49.2577 13.4202 48.7485 13.2902 48.1463 13.1904C47.5441 13.0905 46.8904 13.0276 46.3077 13.0136C45.064 12.9577 43.7739 12.8662 42.4704 12.7414C41.8211 12.6784 41.1843 12.6423 40.6016 12.6353C40.0877 12.63 39.5036 12.5845 38.9384 12.5059C38.3731 12.4272 37.8578 12.3198 37.471 12.1998C36.9489 12.0515 36.4616 11.9016 35.9744 11.7517C35.4871 11.6018 34.9217 11.4123 34.353 11.2284C33.8515 11.1996 33.3632 11.1811 32.8946 11.1732C32.5301 11.1799 32.1048 11.1599 31.6688 11.1154C31.2328 11.0709 30.8043 11.0039 30.434 10.9222C30.6512 10.8416 30.8967 10.7705 31.1554 10.6771C30.8003 10.5538 30.5429 10.428 30.3988 10.3075C30.2547 10.187 30.2268 10.0742 30.317 9.97606C30.3698 9.88704 29.9838 9.73772 29.8505 9.61968C29.6788 9.51792 29.6465 9.42296 29.7579 9.34723C29.8693 9.27151 30.1192 9.21857 30.4748 9.19536C30.9158 9.1525 31.2747 9.08797 31.5368 9.0044C31.6235 8.98271 31.6676 8.953 31.6651 8.91799C31.6627 8.88298 31.6137 8.8438 31.5226 8.80401C31.4316 8.76422 31.3014 8.7251 31.144 8.69023C30.9866 8.65537 30.8071 8.62586 30.6217 8.60441C30.0538 8.54361 29.4898 8.5042 28.9621 8.48845C28.053 8.45946 27.1827 8.44126 26.3513 8.43383C25.4317 8.42265 24.4086 8.35363 23.386 8.23379C22.4705 8.1204 21.6497 8.01874 21.202 7.80205C20.7543 7.58536 20.0386 7.59227 19.4882 7.43452C19.7974 7.29233 20.3469 7.19353 21.0813 7.1481C21.5618 7.13188 21.963 7.08932 22.259 7.02314C22.555 6.95696 22.7393 6.86862 22.8001 6.76379L21.1292 6.32393C19.7947 6.11686 19.0564 6.27624 17.6146 6.19321L19.1002 6.03084C19.1301 6.01479 19.1412 5.99595 19.1332 5.9752C18.9889 5.6468 18.7595 5.57657 17.2408 5.39445L16.3884 5.28889L15.0394 5.1636C14.8233 5.0963 14.6739 5.02612 14.606 4.96006C14.5381 4.89401 14.5541 4.83441 14.6525 4.78723C14.8501 4.70788 14.9102 4.60647 14.8272 4.49236C14.6964 4.41677 14.6856 4.34708 14.7967 4.29539C14.9078 4.2437 15.1338 4.21326 15.4355 4.20938C15.6763 4.20337 15.6941 4.116 15.8251 4.06654C15.9553 3.99835 16.178 3.94603 16.4782 3.91314C16.7784 3.88024 17.1489 3.86753 17.5646 3.87589C18.7904 3.88271 19.9419 3.85712 20.9986 3.79956L20.8092 3.7761C21.9107 3.82663 22.9404 3.83276 23.8483 3.79419C24.7582 3.74563 25.9258 3.77678 26.8922 3.74717C27.679 3.75396 28.2779 3.68676 28.5621 3.55984C28.8372 3.43864 29.8371 3.46693 30.6027 3.4901C31.0563 3.50508 31.4947 3.51143 31.9132 3.50907C32.4749 3.48164 33.1772 3.5075 33.903 3.58233C34.1208 3.60533 34.3353 3.6175 34.5259 3.61768C36.3711 3.64913 38.2129 3.68615 40.0331 3.70257C40.4532 3.69311 40.9459 3.71476 41.4532 3.76499C41.6665 3.78679 41.874 3.79582 42.048 3.79087C44.9241 3.74099 48.1696 3.86825 50.9891 3.79942C51.3309 3.78317 51.7092 3.77979 52.1134 3.78937C53.0217 3.8298 53.8105 3.80378 54.36 3.71527C54.6565 3.66819 55.0366 3.64225 55.476 3.6391C55.9155 3.63595 56.4047 3.65565 56.9124 3.69697C57.7573 3.75167 58.5382 3.75759 59.1726 3.71414C60.4097 3.67398 61.7106 3.65747 63.0651 3.66473C63.4802 3.67176 63.845 3.65615 64.1314 3.61913C64.4178 3.58211 64.618 3.52465 64.7165 3.45123C64.3839 3.32642 64.0201 3.31123 63.6748 3.3222C62.3361 3.29376 61.0008 3.25976 59.6871 3.24635C58.5113 3.20807 57.3831 3.19636 56.3191 3.21142C55.7907 3.22839 55.1315 3.18968 54.4852 3.10372C53.6931 2.99487 52.8773 2.94078 52.2027 2.95241C51.7026 2.9553 51.1746 2.94593 50.6266 2.92442C50.2758 2.89849 49.9162 2.85395 49.5848 2.7954C49.4533 2.76996 49.3101 2.74857 49.1645 2.7326C49.0189 2.71664 48.8741 2.70645 48.7392 2.70267C48.6043 2.69889 48.4823 2.7016 48.3811 2.71065C48.2799 2.7197 48.2018 2.73489 48.1515 2.75523C47.644 2.92529 46.5094 2.8385 45.5378 2.81969C44.0818 2.53186 42.9981 2.70222 41.6373 2.53965C41.5297 2.52888 41.4237 2.52235 41.3257 2.52048C41.2278 2.51862 41.14 2.52146 41.0676 2.52881C38.4342 2.62666 35.3649 2.54512 32.6 2.57891C32.2951 2.58385 31.9411 2.56691 31.5785 2.53003C29.2082 2.28588 26.9292 2.21657 25.1872 2.33564C24.9753 2.34637 24.7341 2.34683 24.4748 2.33699C23.2838 2.23996 22.1448 2.20127 21.1529 2.22416C19.5985 2.21677 18.1039 2.22276 16.5245 2.20034C15.4358 2.16842 14.4806 2.20252 13.7548 2.29923C13.7318 2.33817 13.2483 2.2962 12.8779 2.29214C12.6649 2.1941 12.4803 2.10554 12.2607 2.01862C12.0644 1.91109 11.7703 1.80228 11.3986 1.69956C11.0268 1.59684 10.586 1.50263 10.1059 1.42329C9.28505 1.32163 9.20297 1.1741 9.77733 1.11983C11.2578 0.940264 13.1193 0.866771 15.2252 0.904741C16.9855 0.907775 18.7775 0.914727 20.5628 0.932799C21.6041 0.948303 22.7019 0.98274 23.715 0.98877C24.0568 1.00202 24.4079 1.02154 24.7648 1.04713C25.2026 1.08424 25.6277 1.10446 26.0172 1.1067C27.2679 1.07545 28.6636 1.10267 30.1378 1.18706C30.6778 1.20547 31.1963 1.21167 31.6856 1.20558C32.8432 1.18267 34.0982 1.19953 35.4174 1.25571C36.2373 1.28738 37.0322 1.30395 37.7941 1.30522C38.0631 1.30868 38.2822 1.28207 38.5414 1.30222C40.8224 1.51308 42.4376 1.36078 44.4906 1.44186C45.4884 1.46447 46.4417 1.46453 47.337 1.44205C49.0844 1.44314 50.8804 1.46626 52.718 1.51131C55.1479 1.58532 57.3997 1.55964 59.7198 1.5902C60.1778 1.59662 60.6201 1.59553 61.0434 1.58692C63.1024 1.53004 65.3387 1.54211 67.6979 1.62281C68.2337 1.63447 68.7148 1.62021 69.1112 1.58094C69.5077 1.54167 69.8109 1.47823 70.002 1.39458C70.0828 1.33718 70.0304 1.26261 69.8549 1.18527C69.5637 1.08651 69.2349 0.989736 68.8739 0.896556L55.7414 0.583878C55.1898 0.567551 54.6519 0.558761 54.1304 0.557547C52.5967 0.554828 51.0157 0.530504 49.3955 0.484694C47.7944 0.441664 46.2649 0.449302 44.7137 0.436347C44.2568 0.432007 43.7878 0.421767 43.3087 0.405657C40.07 0.278154 36.9118 0.200278 33.8566 0.172585C32.5712 0.168655 31.1826 0.110139 29.8722 0.0911732C28.5619 0.0722053 26.7699 0.0652622 25.2155 0.0578694L20.4029 0.0590037C19.4563 0.0552313 18.5346 0.0664908 17.6163 0.0721907C16.5018 -0.334573 16.1178 -0.429914 14.6307 -0.608122C14.122 -0.673859 13.6045 -0.713088 13.1389 -0.721217C11.6627 -0.689062 9.81045 -0.822916 8.41057 -0.805194C7.56586 -0.813936 6.84908 -0.768748 6.33362 -0.674258C5.88616 -0.600101 5.37449 -0.541422 4.8065 -0.499108C3.25058 -0.847084 3.11346 -1.07308 4.28386 -1.16103C4.60097 -1.18148 5.03775 -1.17515 5.26674 -1.21845C5.39813 -1.24483 5.57762 -1.25991 5.79091 -1.26252C6.00419 -1.26512 6.24538 -1.25519 6.49554 -1.23348C7.28508 -1.17653 8.02511 -1.16314 8.64138 -1.19465C9.22135 -1.23634 9.93226 -1.23468 10.7056 -1.18981C11.2739 -1.11943 11.7733 -1.21881 12.2648 -1.24752C12.7562 -1.27623 13.1595 -1.32781 13.9271 -1.25066C14.0676 -1.2353 14.2072 -1.22607 14.335 -1.2237C14.4628 -1.22133 14.5755 -1.22586 14.6645 -1.23696C15.4889 -1.28665 16.4727 -1.28143 17.5359 -1.22173C19.1667 -1.16298 20.6967 -1.16077 22.073 -1.21519C22.8968 -1.26281 23.5992 -1.34725 24.1527 -1.46522C24.3036 -1.50467 24.5276 -1.52833 24.8034 -1.53393C26.1881 -1.50931 27.6917 -1.41668 29.2171 -1.26199C29.7917 -1.20001 30.3656 -1.15099 30.9266 -1.11596C32.0794 -1.03815 33.1944 -0.994545 34.2385 -0.986442C35.7558 -0.985158 37.3355 -0.95522 38.9636 -0.896898C39.9684 -0.864425 40.9366 -0.85244 41.8567 -0.861072C42.8024 -0.865141 43.8121 -0.840371 44.8629 -0.787336C45.9079 -0.744119 46.8289 -0.769019 47.5147 -0.859026C47.7405 -0.907527 47.9224 -0.965121 48.057 -1.03073C46.5269 -1.24424 44.9444 -1.35274 43.6282 -1.3344C43.1283 -1.34854 42.7132 -1.33427 42.1864 -1.41743L42.1699 -1.38961C42.0651 -1.37156 41.9069 -1.3673 41.7256 -1.37765C41.5442 -1.38799 41.3524 -1.41222 41.1866 -1.44571C41.2492 -1.55141 41.3086 -1.65156 41.3514 -1.72389C42.3543 -1.71113 43.328 -1.71216 44.2676 -1.72699C45.0597 -1.74833 46.1349 -1.56141 46.8205 -1.63177C48.1577 -1.54379 49.0092 -1.66527 50.2083 -1.63022C51.4075 -1.59516 52.7283 -1.47936 53.9274 -1.4443C54.9738 -1.42507 55.9899 -1.42088 56.9699 -1.43178C57.3081 -1.44707 57.6981 -1.44348 58.1158 -1.42124C58.703 -1.37938 59.2491 -1.37237 59.6916 -1.401C60.1341 -1.42964 60.4551 -1.49277 60.6177 -1.58315C60.4646 -1.66781 60.2582 -1.77697 60.0203 -1.89005C60.458 -1.98297 61.1229 -2.02209 61.9162 -2.0016L63.0372 -2.00609C63.3343 -2.00364 63.5613 -2.02876 63.6715 -2.07625C63.7816 -2.12374 63.7664 -2.18997 63.629 -2.26125C61.5034 -2.62006 61.4251 -2.65962 59.8651 -2.42883L57.7937 -2.53607L57.8286 -2.53772ZM85.8455 -1.55208L85.6877 -1.57162L85.8455 -1.55208ZM343.978 36.6232L343.942 36.6844L343.982 36.6177L344.329 36.6607L344.352 36.6217L343.978 36.6232ZM293.558 9.79924C293.067 9.73247 292.571 9.67109 292.074 9.61547C291.944 9.60684 291.822 9.60489 291.719 9.60979C291.616 9.61468 291.534 9.62627 291.481 9.64357C291.442 9.71033 291.719 9.75666 291.972 9.78794C292.29 9.83004 292.616 9.85679 292.914 9.86544C293.213 9.87409 293.474 9.86432 293.671 9.83714L293.956 9.81278L293.558 9.79924ZM40.7379 26.0711C41.061 26.0824 41.3675 26.0842 41.6497 26.0766C42.9016 26.0226 44.1002 25.9441 45.3837 25.8941C47.0032 25.767 48.8641 25.7153 50.8966 25.7408C51.6906 25.7532 52.3615 25.7121 52.8308 25.622C53.1118 25.5737 53.4744 25.5455 53.8966 25.539L59.27 25.3924C59.6021 25.3619 59.8893 25.3192 60.1247 25.2653C59.6511 25.2067 59.3355 25.1676 59.146 25.1441C58.753 25.1375 58.4152 25.1554 58.1664 25.196C57.8993 25.2647 57.4476 25.2919 56.9013 25.2722C56.3497 25.2558 55.8118 25.2471 55.2904 25.2458C54.3056 25.2493 53.3141 25.2638 52.3261 25.2729C51.9416 25.4641 50.807 25.3773 49.8354 25.3585L49.0848 25.3671C46.6312 25.4662 44.2876 25.6026 42.0651 25.7757C41.6356 25.8049 41.2655 25.8516 40.9664 25.9143C40.8537 25.9632 40.8176 26.0241 40.8609 26.0923L40.7031 26.0728L40.7379 26.0711ZM150.302 44.3587C150.897 44.3718 151.517 44.3985 152.152 44.4386C152.642 44.4796 153.119 44.5044 153.566 44.5122C156.068 44.5551 158.676 44.6541 161.354 44.8079C161.704 44.8312 162.041 44.8426 162.351 44.8418L164.542 44.8027C165.233 44.7808 165.246 44.7585 164.744 44.4633C164.326 44.406 163.904 44.3538 163.481 44.3069C163.228 44.2756 162.818 44.2248 162.722 44.2726C162.136 44.4031 161.068 44.3186 160.169 44.2909C157.568 44.2196 154.886 44.1143 152.26 44.028C151.705 44.0069 151.167 43.9962 150.652 43.9961C150.333 43.9916 150.041 44 149.79 44.0207C149.717 44.0228 149.656 44.029 149.61 44.0388C149.565 44.0487 149.537 44.0619 149.527 44.0777C149.518 44.0935 149.528 44.1114 149.556 44.1304C149.584 44.1494 149.631 44.1689 149.692 44.1876C149.906 44.2533 150.155 44.3163 150.428 44.3744L150.302 44.3587ZM169.355 1.51702L171.917 1.48202C172.225 1.47827 172.485 1.43887 172.814 1.45572C174.569 1.50911 176.193 1.49424 177.618 1.41174C178.104 1.37807 178.671 1.37134 179.291 1.39192C181.186 1.45288 182.974 1.45539 184.606 1.39937C185.661 1.38812 186.649 1.35036 187.554 1.28664C187.623 1.27185 187.667 1.25177 187.681 1.22776C187.695 1.20376 187.68 1.1764 187.636 1.14755C187.625 1.12933 187.594 1.10972 187.545 1.09008C187.497 1.07045 187.432 1.05125 187.355 1.03381C187.279 1.01637 187.192 1.00111 187.101 0.989076C187.011 0.977039 186.918 0.968508 186.83 0.964081C185.687 0.877829 184.601 0.847781 183.663 0.876376C182.792 0.910589 181.855 0.920601 180.866 0.906254C179.92 0.902481 179.277 1.01404 178.108 0.928917C177.613 0.900884 177.177 0.910113 176.872 0.955056C176.26 1.02955 175.405 1.03369 174.459 0.966749C173.894 0.932869 173.353 0.91834 172.858 0.923715C171.658 0.948207 170.51 0.997208 169.398 1.04456C169.047 1.05551 168.672 1.05702 168.277 1.04906L162.707 0.956344C161.368 0.927902 160.033 0.893898 158.719 0.880494C157.645 0.851392 156.645 0.860506 155.755 0.907518C154.806 0.956928 153.771 0.976987 152.669 0.967317C150.959 0.994358 149.258 1.0047 147.397 1.00106C146.209 1.0033 144.994 0.996068 143.753 0.973795C143.126 0.945127 142.593 0.968472 142.257 1.03933C142.053 1.09767 141.573 1.05015 141.174 1.03661C139.048 0.906112 137.054 0.875193 135.332 0.946C135.112 0.957539 134.87 0.961715 134.613 0.958459C132.954 0.956029 131.235 0.940212 129.642 0.940038C129.223 0.945539 128.828 0.960634 128.463 0.985132C128.502 1.0251 128.614 1.06842 128.774 1.10611C128.935 1.14379 129.133 1.17296 129.326 1.18754C130.832 1.29921 132.287 1.35819 133.628 1.36203C135.861 1.34781 138.199 1.37979 140.62 1.45763C142.498 1.53611 144.211 1.51958 145.63 1.40929C146.74 1.32699 148.183 1.35796 149.712 1.49687C150.367 1.56321 151.002 1.58974 151.531 1.57283C152.04 1.55064 152.625 1.55602 153.25 1.58865C154.568 1.65069 155.836 1.67946 157.029 1.67442C158.194 1.65158 159.282 1.58919 160.479 1.57026C161.676 1.55133 163.5 1.56218 164.976 1.53002C166.452 1.49787 167.912 1.49354 169.355 1.51702ZM63.1829 -1.73723C63.3181 -1.56521 63.7969 -1.45813 64.3119 -1.41226C66.0875 -1.20859 67.8429 -1.12191 69.2834 -1.16679C70.0615 -1.22939 71.0988 -1.2053 72.1915 -1.09924C73.4639 -0.988985 74.6531 -0.9707 75.5497 -1.04761C75.7693 -1.06104 75.9375 -1.08945 76.0392 -1.1303C76.059 -1.16368 76.0953 -1.22488 76.1019 -1.23601C76.0077 -1.26423 75.8922 -1.29037 75.7642 -1.31243C75.6363 -1.33449 75.4994 -1.35187 75.364 -1.36322L69.4827 -1.56014L68.4578 -1.60348C66.5858 -1.717 64.802 -1.76223 63.1829 -1.73723ZM74.7515 0.985513C75.6694 1.26642 75.6726 1.26084 76.1429 1.32505C78.4115 1.59178 80.6787 1.73576 82.6745 1.73987C83.1181 1.73905 83.4946 1.71194 83.772 1.6608C83.9147 1.65387 84.0056 1.63185 84.0247 1.59954C84.0439 1.56724 83.9898 1.52726 83.8742 1.48833L83.1443 1.29044C81.8187 1.20476 80.5121 1.13669 79.2325 1.08663C77.7426 1.02751 76.4222 1.02523 74.8777 1.00114L74.7515 0.985513ZM150.192 43.1149C151.047 43.5015 151.05 43.4959 152.482 43.5957C153.48 43.6663 154.448 43.7078 155.357 43.7189C156.468 43.7311 157.608 43.7527 158.716 43.7705C158.986 43.7828 159.215 43.7726 159.359 43.7418C159.502 43.711 159.55 43.6619 159.492 43.6039C159.347 43.541 159.119 43.4801 158.847 43.4312C158.574 43.3823 158.273 43.3482 157.991 43.3344L157.387 43.3252C156.653 43.306 155.89 43.2772 155.181 43.273C154.721 43.289 154.188 43.2766 153.624 43.2368C153.059 43.197 152.479 43.1307 151.928 43.0434L150.192 43.1149ZM79.3187 -1.23174C79.5471 -1.16479 79.8054 -1.10066 80.0867 -1.04107C81.1761 -0.875898 82.329 -0.782087 83.3196 -0.778027C83.7879 -0.767796 84.2162 -0.804327 84.6931 -0.75124C85.5483 -0.680301 86.3772 -0.642513 87.1349 -0.639921C87.1349 -0.639921 87.3473 -0.655411 87.417 -0.658719L87.5621 -0.903515C87.2035 -0.960224 86.8294 -1.00655 86.4572 -1.04037C85.208 -1.1055 83.9806 -1.15002 82.7564 -1.20011C81.5323 -1.25021 81.1054 -1.27321 80.3049 -1.29473C79.9478 -1.2829 79.6175 -1.26181 79.3187 -1.23174ZM52.2684 29.2012L53.9031 29.7023C54.432 29.7458 54.9262 29.7537 55.3104 29.7247C55.6945 29.6958 55.9477 29.6316 56.0313 29.5419C56.1659 29.4999 56.1794 29.4377 56.0689 29.3683C55.9583 29.299 55.7324 29.2278 55.4385 29.1698C55.1556 29.1011 54.8327 29.0394 54.4896 28.9887C54.1466 28.938 53.7909 28.8994 53.4444 28.8751L52.2684 29.2012ZM65.8785 26.7065C64.8094 26.6216 63.7868 26.5868 62.8889 26.605C62.3232 26.6547 61.5566 26.6388 60.7464 26.5606C59.273 26.4047 57.8527 26.3616 56.7852 26.4402C56.7852 26.4402 56.7455 26.507 56.5646 26.5264C56.3837 26.5458 57.1013 26.5929 57.2591 26.6124C58.4169 26.6602 59.5812 26.6969 60.5876 26.7141C61.2125 26.7134 61.8734 26.7291 62.559 26.7612C63.5024 26.8106 64.3971 26.8266 65.2081 26.8086C65.2081 26.8086 65.5219 26.7937 65.8752 26.7121L65.8785 26.7065ZM180.059 0.60926C179.549 0.514899 178.995 0.438206 178.44 0.38494C177.884 0.331676 177.342 0.303225 176.853 0.301709C176.478 0.296786 176.176 0.3217 175.992 0.372514C175.808 0.423326 175.755 0.49714 175.839 0.582281C176.218 0.629201 176.723 0.691761 177.008 0.726951C177.992 0.723507 178.832 0.678261 180.059 0.60926ZM275.654 8.56114C275.244 8.48517 274.792 8.4271 274.351 8.39353C273.909 8.35997 273.496 8.35228 273.157 8.37134C272.982 8.37961 273.101 8.46592 273.071 8.51599C273.052 8.52735 273.052 8.54146 273.072 8.55687C273.091 8.57228 273.13 8.58841 273.183 8.60357C273.237 8.61873 273.303 8.63236 273.375 8.64304C273.447 8.65372 273.522 8.66105 273.593 8.66426C274.038 8.69698 274.457 8.70672 274.814 8.69261C275.172 8.6785 275.455 8.64098 275.64 8.58339L275.654 8.56114ZM282.058 9.64704C281.995 9.60221 281.86 9.5555 281.679 9.51545C281.497 9.4754 281.281 9.4447 281.069 9.42899C280.696 9.42688 280.357 9.43931 280.065 9.46581C279.748 9.48626 279.976 9.61603 280.405 9.69303C280.586 9.72393 280.78 9.74804 280.971 9.76343C281.162 9.77883 281.345 9.78507 281.505 9.78169C281.665 9.77831 281.798 9.76537 281.893 9.74393C281.988 9.72249 282.042 9.69312 282.052 9.65816L282.058 9.64704ZM95.946 -0.754973C94.9904 -0.91513 94.2549 -0.874838 93.4458 -0.939209C92.6368 -1.00358 92.4375 -1.01035 92.5459 -0.907347C92.6542 -0.804344 93.2089 -0.825233 93.5561 -0.782222C94.0253 -0.725151 94.4973 -0.69238 94.9194 -0.687566C95.3415 -0.682753 95.6969 -0.706093 95.946 -0.754973ZM295.071 26.3438C294.565 26.3078 294.069 26.2824 293.591 26.268C293.528 26.2829 293.489 26.3024 293.475 26.3253C293.462 26.3482 293.474 26.3741 293.512 26.4015C293.512 26.4015 293.836 26.4834 294.025 26.5069C294.723 26.5874 294.758 26.4722 295.071 26.3438ZM366.609 41.2654C366.951 41.3735 367.111 41.4471 367.385 41.4989C367.511 41.517 367.641 41.53 367.766 41.5372C367.891 41.5444 368.007 41.5455 368.106 41.5405C368.227 41.5093 368.255 41.4616 368.185 41.4069C368.185 41.4069 367.836 41.31 367.703 41.3054C367.324 41.2825 366.957 41.2691 366.609 41.2654ZM79.6805 -1.67066C78.9544 -1.76059 78.2598 -1.84662 77.7571 -1.74167C78.9101 -1.62873 78.9101 -1.62872 79.6805 -1.67066ZM91.441 -0.64407C90.7078 -0.836402 90.2776 -0.853856 89.9256 -0.831757C89.8508 -0.826192 89.8013 -0.813786 89.7846 -0.796423C89.7679 -0.779062 89.7848 -0.757687 89.833 -0.735531C89.8811 -0.713375 89.9577 -0.691646 90.0513 -0.673627C90.1449 -0.655609 90.2503 -0.642284 90.3516 -0.635668C90.7339 -0.630132 91.0986 -0.632943 91.441 -0.64407ZM129.177 -0.562741C129.194 -0.590559 129.214 -0.62394 129.024 -0.6474C128.975 -0.65931 128.916 -0.669551 128.855 -0.677101C128.794 -0.684651 128.733 -0.689238 128.677 -0.690405C128.677 -0.690405 128.657 -0.657023 128.644 -0.634769L129.177 -0.562741ZM155.382 45.621L154.961 45.6464L155.15 45.6699L155.65 45.684L155.382 45.621ZM303.868 9.21297C303.71 9.19341 303.553 9.17386 303.529 9.21281C303.496 9.21884 303.475 9.22755 303.469 9.23819C303.463 9.24884 303.471 9.26111 303.493 9.27401C303.493 9.27401 303.714 9.30138 303.809 9.31311L303.868 9.21297ZM279.285 9.52444C279.181 9.52221 279.087 9.52482 279.009 9.53211L278.989 9.56549L279.305 9.6046L279.285 9.52444ZM65.0448 17.4781C64.9228 17.4579 64.7936 17.4419 64.666 17.4312L64.508 17.4117C64.508 17.4117 64.6777 17.4685 64.7724 17.4802C64.8671 17.492 64.9435 17.4775 65.0448 17.4781Z" fill="#760A16"/>
</g>
</svg>
