<svg width="25" height="25" viewBox="0 0 25 25" fill="none" xmlns="http://www.w3.org/2000/svg">
<g clip-path="url(#clip0_147_188)">
<path d="M12.5 0.5C5.87281 0.5 0.5 5.87281 0.5 12.5C0.5 19.1272 5.87281 24.5 12.5 24.5C19.1272 24.5 24.5 19.1272 24.5 12.5C24.5 5.87281 19.1272 0.5 12.5 0.5ZM6.35281 9.34953C7.12531 9.03703 7.89922 8.72797 8.67453 8.42234C9.88828 7.92641 11.1048 7.43812 12.3242 6.9575C12.4855 6.88203 12.6336 6.93312 12.7789 6.98891C13.4572 7.25281 14.1289 7.53453 14.8044 7.80547C16.0405 8.29578 17.2695 8.80156 18.5047 9.29328C18.6809 9.36406 18.8614 9.42781 18.9669 9.60453C19.1844 9.96828 18.9753 10.3545 18.6336 10.482C17.7819 10.8148 16.9381 11.1673 16.0883 11.5053C15.373 11.7966 14.6566 12.0847 13.9391 12.3697C13.5516 12.5259 13.1642 12.6834 12.777 12.8422C12.6898 12.8801 12.5956 12.8997 12.5005 12.8997C12.4053 12.8997 12.3112 12.8801 12.2239 12.8422C11.3177 12.4762 10.413 12.1098 9.50984 11.743C8.84266 11.4802 8.17703 11.2136 7.51297 10.9433C7.12859 10.7886 6.74469 10.632 6.3575 10.4839C6.12641 10.3958 5.94078 10.1492 5.94266 9.90734C5.94406 9.67297 6.12031 9.44141 6.35281 9.34953ZM5.9525 12.3964C6.03828 12.0856 6.26375 11.8808 6.59656 11.9277C6.80141 11.9558 7.00016 12.0453 7.19562 12.1217C7.62312 12.2886 8.04688 12.4648 8.47297 12.6373C9.80203 13.1642 11.1287 13.6966 12.4531 14.2344C12.4835 14.2448 12.5165 14.2448 12.5469 14.2344C13.1389 13.9972 13.7295 13.7572 14.3211 13.5191C15.1736 13.1806 16.0242 12.8369 16.873 12.4878C17.2948 12.3181 17.7205 12.1597 18.1409 11.9848C18.3702 11.8911 18.5877 11.8859 18.7972 12.0242C19.2144 12.2914 19.0995 12.9148 18.6425 13.0695C18.1142 13.2795 17.5887 13.4952 17.0614 13.707C15.6552 14.263 14.2611 14.8438 12.8544 15.3945C12.8075 15.4133 12.7564 15.4306 12.7062 15.447C12.5724 15.4911 12.428 15.4911 12.2942 15.447C12.2253 15.425 12.1573 15.4002 12.0908 15.3753C10.5303 14.7575 8.98063 14.1097 7.41875 13.4966C7.03719 13.3428 6.65563 13.1881 6.27781 13.0255C6.03125 12.9219 5.89062 12.6228 5.9525 12.3955V12.3964ZM18.6495 15.6575C16.6878 16.4516 14.7186 17.2273 12.7616 18.0336C12.5178 18.1367 12.3008 18.0542 12.0791 17.9633C11.6952 17.8053 11.3089 17.6534 10.9236 17.4983C9.40109 16.8848 7.87828 16.2717 6.35516 15.6589C5.71063 15.4152 5.86063 14.5203 6.57406 14.4842C7.13188 14.6623 7.66672 14.9023 8.21047 15.1184C9.62578 15.6894 11.0411 16.2591 12.4564 16.8275C12.4871 16.8374 12.5203 16.8363 12.5502 16.8242C13.5189 16.4292 14.4891 16.0397 15.4606 15.6556C16.2575 15.335 17.0506 15.0027 17.8512 14.6919C18.02 14.6267 18.1892 14.5447 18.3669 14.5189C18.7578 14.4613 19.0142 14.7092 19.0606 15.0781C19.0878 15.3027 18.8961 15.5577 18.6495 15.6566V15.6575Z" fill="#4C1E4F"/>
</g>
<defs>
<clipPath id="clip0_147_188">
<rect width="24" height="24" fill="white" transform="translate(0.5 0.5)"/>
</clipPath>
</defs>
</svg>
