 <svg
                           
                            width="20" height="20" viewBox="0 0 20 20" fill="none" xmlns="http://www.w3.org/2000/svg">
                            <path d="M8.30589 1.95084C8.46728 -0.140366 11.5327 -0.140366 11.6941 1.95084C11.8011 3.3374 13.4376 4.01524 14.4937 3.11046C16.0865 1.74588 18.2541 3.91348 16.8895 5.50631C15.9848 6.56242 16.6626 8.19887 18.0492 8.30589C20.1404 8.46728 20.1404 11.5327 18.0492 11.6941C16.6626 11.8011 15.9848 13.4376 16.8895 14.4937C18.2541 16.0865 16.0865 18.2541 14.4937 16.8895C13.4376 15.9848 11.8011 16.6626 11.6941 18.0492C11.5327 20.1404 8.46728 20.1404 8.30589 18.0492C8.19887 16.6626 6.56242 15.9848 5.5063 16.8895C3.91348 18.2541 1.74588 16.0865 3.11046 14.4937C4.01524 13.4376 3.3374 11.8011 1.95084 11.6941C-0.140366 11.5327 -0.140366 8.46728 1.95084 8.30589C3.3374 8.19887 4.01524 6.56242 3.11046 5.50631C1.74588 3.91348 3.91348 1.74588 5.50631 3.11046C6.56242 4.01524 8.19887 3.3374 8.30589 1.95084Z" fill="#040411" />
                        </svg>