<svg width="25" height="25" viewBox="0 0 25 25" fill="none" xmlns="http://www.w3.org/2000/svg">
<path d="M17.6975 6.24512C17.9811 6.85598 18.1925 7.49781 18.3275 8.15762C19.353 8.7145 20.2344 9.503 20.9016 10.4604C21.5688 11.4178 22.0034 12.5177 22.1708 13.6726C22.3382 14.8274 22.2339 16.0055 21.866 17.1129C21.4981 18.2203 20.8769 19.2267 20.0517 20.0518C19.2266 20.877 18.2202 21.4982 17.1128 21.8661C16.0053 22.234 14.8273 22.3384 13.6724 22.1709C12.5176 22.0035 11.4177 21.5689 10.4603 20.9017C9.50288 20.2345 8.71438 19.3531 8.1575 18.3276C7.49769 18.1926 6.85586 17.9812 6.245 17.6976C6.74473 19.1383 7.60231 20.4283 8.73724 21.4467C9.87217 22.4651 11.2472 23.1784 12.7334 23.5197C14.2196 23.861 15.7681 23.8191 17.2336 23.398C18.6992 22.9769 20.0337 22.1903 21.1119 21.112C22.1901 20.0338 22.9767 18.6993 23.3979 17.2337C23.819 15.7682 23.8609 14.2197 23.5196 12.7335C23.1783 11.2474 22.4649 9.87229 21.4466 8.73736C20.4282 7.60243 19.1381 6.74485 17.6975 6.24512Z" fill="#4C1E4F"/>
<path d="M14.75 5.75021C15.7534 5.74793 16.7499 5.91528 17.6975 6.24521C17.1137 4.98573 16.2345 3.88579 15.1346 3.03882C14.0347 2.19186 12.7466 1.62291 11.3797 1.3803C10.0129 1.13769 8.60765 1.22859 7.28345 1.64528C5.95925 2.06198 4.7552 2.79215 3.77358 3.77376C2.79196 4.75538 2.06179 5.95943 1.6451 7.28363C1.22841 8.60784 1.1375 10.0131 1.38011 11.3799C1.62272 12.7468 2.19168 14.0348 3.03864 15.1348C3.8856 16.2347 4.98555 17.1139 6.24502 17.6977C5.9151 16.7501 5.74774 15.7536 5.75002 14.7502C5.75002 12.3633 6.69824 10.0741 8.38606 8.38625C10.0739 6.69842 12.3631 5.75021 14.75 5.75021Z" fill="#4C1E4F"/>
<path d="M7.25 14.7502C7.24978 15.9997 7.56172 17.2294 8.1575 18.3277C9.55342 18.6114 10.9979 18.545 12.3618 18.1343C13.7258 17.7237 14.9668 16.9816 15.9741 15.9743C16.9813 14.9671 17.7234 13.7261 18.1341 12.3621C18.5448 10.9981 18.6112 9.55365 18.3275 8.15774C17.1851 7.53772 15.9011 7.22525 14.6016 7.25098C13.302 7.27671 12.0314 7.63975 10.9144 8.3045C9.79742 8.96924 8.87237 9.91288 8.22997 11.0429C7.58757 12.1729 7.24987 13.4504 7.25 14.7502Z" fill="#4C1E4F"/>
</svg>
