<svg width="360" height="772" viewBox="0 0 360 772" fill="none" xmlns="http://www.w3.org/2000/svg">
<g opacity="0.3" filter="url(#filter0_f_0_1)">
<ellipse cx="-29.5" cy="386" rx="260.5" ry="270" fill="#C49BBB"/>
</g>
<g opacity="0.4" clip-path="url(#clip0_0_1)">
<g style="mix-blend-mode:color-dodge">
<path d="M62.0805 827.449C61.5892 824.485 59.5624 823.027 57.2592 823.626L40.8759 721.168L95.0161 593.696L71.9689 518.68L20.8228 508.791L12.7309 466.807L40.9373 421.521L41.0601 421.321L27.5174 376.773L9.29148 377.372L2.05947 347.335L21.6673 321.935L21.7594 321.812L5.23787 274.699C5.8367 274.269 6.22056 273.809 6.15914 273.609C6.06701 273.363 5.34535 273.563 4.54691 274.054C3.74847 274.546 3.165 275.145 3.25712 275.406C3.3339 275.621 3.8406 275.513 4.47014 275.191L20.7614 322.289L1 347.795L8.2013 378.293L26.4118 377.725L39.6321 421.889L11.3797 467.144L11.2415 467.375L19.318 510.204L70.3874 520.231L92.7897 594.341L38.3731 721.721L54.5107 825.33C52.4379 827.434 51.1941 830.889 51.6394 833.884C52.1768 837.508 54.9867 839.028 57.8887 837.231C60.7908 835.435 62.664 831.058 62.0805 827.465V827.449Z" fill="url(#paint0_radial_0_1)"/>
<path d="M60.0042 722.599L112.409 592.854L82.4679 505.308L31.1222 496.616L23.9976 464.767L51.8816 418.929L34.9915 369.082L16.6889 369.911L9.87143 344.927L29.3718 319.328L22.2472 300.946C22.9382 300.439 23.3681 299.887 23.2606 299.61C23.1378 299.272 22.2779 299.472 21.3413 300.04C20.4047 300.608 19.7598 301.346 19.8826 301.683C19.9901 301.96 20.6043 301.868 21.3413 301.499L28.3276 319.788L8.78125 345.403L15.5987 370.802L33.886 370.004L50.4075 419.497L22.4468 465.335L29.6174 497.983L80.8864 506.813L110.106 593.499L57.4246 723.152L65.0098 764.031C63.0904 765.92 61.9695 768.96 62.4148 771.525C62.9676 774.611 65.6239 775.794 68.3263 774.135C71.0287 772.461 72.7331 768.607 72.1343 765.551C71.6429 763.017 69.7236 761.85 67.5586 762.464L60.0042 722.615V722.599Z" fill="url(#paint1_radial_0_1)"/>
<path d="M14.252 268.602C14.3288 268.802 14.8662 268.694 15.4957 268.372L35.6563 316.376L16.3863 341.928L23.2498 364.64L41.6906 363.642L60.7764 415.255L33.5373 460.817L33.3992 461.047L40.2934 488.52L92.1458 496.474L126.463 588.443L80.2614 707.316C78.2653 707.562 76.177 709.359 75.1943 711.846C74.012 714.856 74.918 717.728 77.2211 718.265C79.5397 718.803 82.3803 716.745 83.5472 713.704C84.5146 711.186 83.9925 708.821 82.4724 707.808L128.797 587.814L93.6966 495.015L41.7828 487.184L39.0036 476.311L116.698 486.677L135.246 528.477C133.864 529.721 133.189 531.441 133.726 532.669C134.371 534.159 136.536 534.374 138.547 533.145C140.559 531.917 141.634 529.705 140.958 528.216C140.405 526.987 138.808 526.665 137.15 527.294L118.233 485.187L38.6044 474.76L34.95 460.494L62.2351 414.702L54.7881 394.831L67.471 394.8L80.7681 426.741L68.6226 448.578C67.3942 448.962 66.0737 449.96 65.4442 451.081C64.6918 452.432 65.2292 453.431 66.6418 453.308C68.0545 453.185 69.8202 451.987 70.5726 450.636C71.1868 449.515 70.9104 448.655 69.9738 448.47L82.3342 426.173L68.6686 393.771L54.3889 393.817L42.7501 362.767L24.2939 363.78L18.7048 345.568L49.9514 342.85L60.4846 367.205L68.0084 366.852C67.6245 367.589 67.8856 368.111 68.7301 368.08C69.7588 368.034 71.2482 367.19 72.0466 366.207C72.8451 365.224 72.6455 364.472 71.6014 364.518C70.7415 364.564 69.5899 365.147 68.7608 365.9L61.5902 366.238L50.9648 341.99L18.4745 344.862L17.4304 341.468L36.6697 315.915L24.0175 286.154L29.9597 285.033L43.656 314.947L29.7448 333.713L30.3743 335.417C29.5912 336.016 29.0845 336.707 29.2227 337.076C29.3916 337.521 30.3897 337.352 31.4798 336.692C32.57 336.032 33.307 335.126 33.1381 334.68C32.9999 334.312 32.2783 334.373 31.4184 334.788L30.8503 333.237L44.7308 314.487L30.7889 284.404L23.8486 285.709L16.2788 267.896C16.8776 267.466 17.2615 267.02 17.1694 266.821C17.0619 266.575 16.3248 266.79 15.5264 267.282C14.728 267.773 14.1599 268.372 14.252 268.618V268.602Z" fill="url(#paint2_radial_0_1)"/>
<path d="M64.6252 237.616C64.7634 237.785 65.3316 237.647 65.9918 237.309L92.0332 268.175L103.703 265.887L114.973 278.126L107.818 289.075C106.942 289.428 106.037 290.073 105.653 290.672C105.192 291.379 105.653 291.732 106.666 291.471C107.695 291.194 108.908 290.396 109.369 289.689C109.752 289.106 109.491 288.768 108.8 288.829L116.094 277.635L104.962 265.657L121.591 262.401L140.047 280.138L130.942 295.31L145.083 310.666L125.951 312.985L119.579 305.276C120.393 304.646 120.808 303.94 120.516 303.587C120.163 303.172 118.95 303.403 117.798 304.109C116.647 304.815 115.986 305.737 116.324 306.167C116.616 306.52 117.506 306.412 118.474 305.952L124.938 313.845L145.697 311.357L145.728 311.326L160.883 327.788L185.205 325.485L215.899 355.23L205.273 382.441C203.861 382.902 202.555 383.9 202.156 384.96C201.665 386.219 202.632 387.064 204.352 386.818C206.072 386.572 207.868 385.344 208.36 384.069C208.759 383.01 208.129 382.288 206.932 382.211L217.664 354.57L187.201 325.316L209.358 323.228L233.956 344.726L217.142 390.626L265.985 443.974L384.538 450.823L401.044 464.306C399.647 465.719 399.57 467.561 401.075 468.805C402.902 470.31 406.311 470.372 408.691 468.913C411.055 467.454 411.455 465.058 409.597 463.569C408.061 462.34 405.466 462.125 403.286 462.924L386.12 449.026L267.505 442.408L219.031 389.951L235.706 344.066L210.478 322.214L162.004 326.852L132.216 294.803L141.291 279.646L122.497 261.741L92.9084 267.546L66.7595 236.833C67.343 236.418 67.6655 235.988 67.5273 235.82C67.3584 235.62 66.5599 235.866 65.7615 236.357C64.963 236.848 64.441 237.417 64.6099 237.616H64.6252Z" fill="url(#paint3_radial_0_1)"/>
<path d="M393.786 433.593L275.955 428.971L234.221 386.618L249.944 340.442L217.193 313.753L168.78 318.866L141.832 291.67L150.707 276.468L127.967 256.105L98.3636 262.11L91.9454 255.046C92.6056 254.554 92.9588 254.063 92.7592 253.848C92.5288 253.587 91.5922 253.848 90.6709 254.401C89.7497 254.954 89.1969 255.629 89.4272 255.89C89.6268 256.105 90.3024 255.967 91.0548 255.583L97.5191 262.755L127.107 256.781L149.479 276.99L140.573 292.193L167.674 319.803L216.056 314.751L248.132 341.118L232.271 387.31L274.435 430.507L392.204 435.344L461.546 488.63C460.072 490.197 460.164 492.285 462.037 493.744C464.294 495.51 468.256 495.648 470.851 494.051C473.445 492.454 473.66 489.736 471.357 488.001C469.453 486.573 466.444 486.265 464.002 487.11L393.74 433.578L393.786 433.593Z" fill="url(#paint4_radial_0_1)"/>
<path d="M75.6394 230.843C75.793 230.996 76.3764 230.858 77.0213 230.52L103.539 258.1L133.281 251.927L158.155 273.042L149.48 288.198L175.567 313.137L224.21 307.67L260.816 335.987L245.906 382.056L285.26 419.894L403.414 423.211C402.155 424.501 402.109 426.098 403.521 427.127C405.241 428.386 408.465 428.309 410.692 426.942C412.918 425.576 413.287 423.441 411.536 422.197C410.093 421.168 407.636 421.076 405.594 421.859L405.087 421.491L286.734 418.389L247.872 381.35L262.582 335.496L262.643 335.296L225.331 306.672L176.657 312.2L150.754 287.661L159.399 272.52L134.14 251.266L104.383 257.455L77.8044 230.044C78.3879 229.629 78.7103 229.215 78.5414 229.061C78.3572 228.877 77.5587 229.123 76.7603 229.614C75.9619 230.105 75.4552 230.658 75.6394 230.858V230.843Z" fill="url(#paint5_radial_0_1)"/>
<path d="M46.0102 249.07C46.1331 249.255 46.6858 249.117 47.3307 248.794L53.2422 257.639L45.7031 266.945L72.7579 312.676L69.8559 316.869C68.9807 317.222 68.0594 317.882 67.6295 318.512C67.1074 319.264 67.4759 319.694 68.474 319.448C69.472 319.203 70.7004 318.389 71.2224 317.621C71.6524 316.991 71.4528 316.607 70.8079 316.623L73.8788 312.169L46.5783 266.515L53.4725 257.992L80.2817 298.118L91.7822 296.368L103.912 313.014L96.189 325.238L112.895 350.606L137.462 348.948L141.04 353.662L121.432 391.224L144.387 429.553C143.235 430.536 142.698 431.78 143.174 432.578C143.742 433.546 145.569 433.5 147.228 432.471C148.901 431.442 149.777 429.829 149.193 428.877C148.702 428.094 147.366 428.002 145.984 428.586L123.013 390.625L141.746 354.584L160.939 379.937L149.147 405.229L214.266 503.939L258.318 510.066C258.103 511.694 259.178 513.061 261.113 513.337C263.447 513.675 266.103 512.277 267.009 510.22C267.915 508.177 266.748 506.273 264.429 505.966C262.51 505.705 260.391 506.626 259.209 508.116L215.924 502.204L157.147 413.997L182.298 414.627L213.145 456.196L281.55 461.494L314.654 497.704L324.988 498.902C324.926 500.576 326.293 501.989 328.489 502.25C331.145 502.572 333.939 501.098 334.723 498.964C335.506 496.844 333.985 494.909 331.36 494.618C329.179 494.372 326.922 495.355 325.755 496.89L316.343 495.815L283.131 459.82L214.665 454.661L183.679 413.306L156.272 412.676L150.882 404.599L157.592 390.149L180.394 389.965L207.279 423.733C206.097 424.777 205.636 426.098 206.297 426.927C207.095 427.941 209.199 427.879 210.995 426.774C212.792 425.668 213.575 423.963 212.746 422.95C212.07 422.121 210.504 422.044 208.984 422.673L181.699 388.721L158.129 388.951L162.613 379.292L138.629 347.919L114.046 349.608L104.266 334.912L143.589 331.303L165.269 357.21L184.094 356.196C183.833 357.041 184.386 357.64 185.583 357.578C187.011 357.501 188.777 356.518 189.53 355.382C190.267 354.246 189.698 353.401 188.27 353.478C187.088 353.539 185.676 354.23 184.816 355.106L166.467 356.119L144.694 330.336L103.759 334.144L97.4634 324.685L105.156 312.461L92.7342 295.585L81.2336 297.351L58.2325 263.26L69.1496 260.926L81.7557 277.787C81.0494 278.309 80.6655 278.877 80.8498 279.138C81.0801 279.461 82.0781 279.215 83.0608 278.616C84.0435 278.002 84.6577 277.265 84.412 276.942C84.2124 276.681 83.4908 276.804 82.6923 277.203L69.948 260.296L57.9868 262.86L48.1445 248.272C48.728 247.842 49.0811 247.412 48.9583 247.243C48.8047 247.028 48.037 247.243 47.2386 247.75C46.4401 248.241 45.9027 248.825 46.0409 249.04L46.0102 249.07Z" fill="url(#paint6_radial_0_1)"/>
<path d="M30.2671 258.762C30.3746 258.946 30.912 258.839 31.5569 258.501L59.6251 310.666L52.8076 320.172L61.9897 339.044L76.2848 337.739L90.6567 364.029L77.9124 385.313L94.5721 421.185L122.226 422.245L178.454 525.301L161.057 574.733L160.919 575.132L171.606 598.689C170.025 600.194 169.334 602.39 170.086 604.063C170.992 606.09 173.633 606.566 175.967 605.123C178.316 603.68 179.452 600.869 178.516 598.873C177.748 597.214 175.798 596.646 173.832 597.322L163.33 574.456L180.619 524.948L180.742 524.595L123.577 420.986L95.8926 419.987L90.2728 408.04L112.199 368.728L112.307 368.544L96.5989 342.807C97.4741 342.116 97.9501 341.302 97.6891 340.872C97.3666 340.35 96.0922 340.534 94.8638 341.302C93.6355 342.054 92.8831 343.114 93.2055 343.636C93.4666 344.081 94.3879 344.02 95.4166 343.544L110.863 369.127L89.7508 406.858L79.3557 384.729L92.054 363.446L77.3596 336.833L63.0491 338.154L53.9439 319.649L60.7459 310.144L32.3246 258.025C32.9081 257.595 33.2766 257.165 33.1691 256.965C33.0463 256.735 32.2939 256.965 31.4955 257.441C30.697 257.933 30.1443 258.516 30.2671 258.746V258.762Z" fill="url(#paint7_radial_0_1)"/>
</g>
</g>
<defs>
<filter id="filter0_f_0_1" x="-405.8" y="0.199997" width="752.6" height="771.6" filterUnits="userSpaceOnUse" color-interpolation-filters="sRGB">
<feFlood flood-opacity="0" result="BackgroundImageFix"/>
<feBlend mode="normal" in="SourceGraphic" in2="BackgroundImageFix" result="shape"/>
<feGaussianBlur stdDeviation="57.9" result="effect1_foregroundBlur_0_1"/>
</filter>
<radialGradient id="paint0_radial_0_1" cx="0" cy="0" r="1" gradientUnits="userSpaceOnUse" gradientTransform="translate(241.589 438.959) rotate(58.4028) scale(307.639 307.623)">
<stop offset="0.18" stop-color="#f0f0f0"/> <!-- Light Gray -->
    <stop offset="0.48" stop-color="#e5e5e5"/> <!-- Lighter Gray -->
    <stop offset="0.59" stop-color="#d9d9d9"/> <!-- Even Lighter Gray -->
    <stop offset="0.7" stop-color="#cccccc"/> <!-- Lightest Gray -->
    <stop offset="0.8" stop-color="#bfbfbf"/> <!-- Near White Gray -->
    <stop offset="0.88" stop-color="#e6e6e6"/> <!-- Nearer White -->
    <stop offset="0.95" stop-color="#f2f2f2"/> <!-- Almost White -->
    <stop offset="1" stop-color="#ffffff"/> <!-- White -->
<stop offset="1"/>
</radialGradient>
<radialGradient id="paint1_radial_0_1" cx="0" cy="0" r="1" gradientUnits="userSpaceOnUse" gradientTransform="translate(241.586 438.962) rotate(58.4028) scale(307.639 307.623)">
<stop offset="0.18" stop-color="#f0f0f0"/> <!-- Light Gray -->
    <stop offset="0.48" stop-color="#e5e5e5"/> <!-- Lighter Gray -->
    <stop offset="0.59" stop-color="#d9d9d9"/> <!-- Even Lighter Gray -->
    <stop offset="0.7" stop-color="#cccccc"/> <!-- Lightest Gray -->
    <stop offset="0.8" stop-color="#bfbfbf"/> <!-- Near White Gray -->
    <stop offset="0.88" stop-color="#e6e6e6"/> <!-- Nearer White -->
    <stop offset="0.95" stop-color="#f2f2f2"/> <!-- Almost White -->
    <stop offset="1" stop-color="#ffffff"/> <!-- White -->
<stop offset="1"/>
</radialGradient>
<radialGradient id="paint2_radial_0_1" cx="0" cy="0" r="1" gradientUnits="userSpaceOnUse" gradientTransform="translate(241.59 438.958) rotate(58.4028) scale(307.639 307.623)">
<stop offset="0.18" stop-color="#f0f0f0"/> <!-- Light Gray -->
    <stop offset="0.48" stop-color="#e5e5e5"/> <!-- Lighter Gray -->
    <stop offset="0.59" stop-color="#d9d9d9"/> <!-- Even Lighter Gray -->
    <stop offset="0.7" stop-color="#cccccc"/> <!-- Lightest Gray -->
    <stop offset="0.8" stop-color="#bfbfbf"/> <!-- Near White Gray -->
    <stop offset="0.88" stop-color="#e6e6e6"/> <!-- Nearer White -->
    <stop offset="0.95" stop-color="#f2f2f2"/> <!-- Almost White -->
    <stop offset="1" stop-color="#ffffff"/> <!-- White -->
<stop offset="1"/>
</radialGradient>
<radialGradient id="paint3_radial_0_1" cx="0" cy="0" r="1" gradientUnits="userSpaceOnUse" gradientTransform="translate(241.585 438.961) rotate(58.4029) scale(307.639 307.623)">
<stop offset="0.18" stop-color="#f0f0f0"/> <!-- Light Gray -->
    <stop offset="0.48" stop-color="#e5e5e5"/> <!-- Lighter Gray -->
    <stop offset="0.59" stop-color="#d9d9d9"/> <!-- Even Lighter Gray -->
    <stop offset="0.7" stop-color="#cccccc"/> <!-- Lightest Gray -->
    <stop offset="0.8" stop-color="#bfbfbf"/> <!-- Near White Gray -->
    <stop offset="0.88" stop-color="#e6e6e6"/> <!-- Nearer White -->
    <stop offset="0.95" stop-color="#f2f2f2"/> <!-- Almost White -->
    <stop offset="1" stop-color="#ffffff"/> <!-- White -->
<stop offset="1"/>
</radialGradient>
<radialGradient id="paint4_radial_0_1" cx="0" cy="0" r="1" gradientUnits="userSpaceOnUse" gradientTransform="translate(241.59 438.961) rotate(58.4028) scale(307.639 307.623)">
<stop offset="0.18" stop-color="#f0f0f0"/> <!-- Light Gray -->
    <stop offset="0.48" stop-color="#e5e5e5"/> <!-- Lighter Gray -->
    <stop offset="0.59" stop-color="#d9d9d9"/> <!-- Even Lighter Gray -->
    <stop offset="0.7" stop-color="#cccccc"/> <!-- Lightest Gray -->
    <stop offset="0.8" stop-color="#bfbfbf"/> <!-- Near White Gray -->
    <stop offset="0.88" stop-color="#e6e6e6"/> <!-- Nearer White -->
    <stop offset="0.95" stop-color="#f2f2f2"/> <!-- Almost White -->
    <stop offset="1" stop-color="#ffffff"/> <!-- White -->
<stop offset="1"/>
</radialGradient>
<radialGradient id="paint5_radial_0_1" cx="0" cy="0" r="1" gradientUnits="userSpaceOnUse" gradientTransform="translate(241.59 438.959) rotate(58.4028) scale(307.639 307.623)">
<stop offset="0.18" stop-color="#f0f0f0"/> <!-- Light Gray -->
    <stop offset="0.48" stop-color="#e5e5e5"/> <!-- Lighter Gray -->
    <stop offset="0.59" stop-color="#d9d9d9"/> <!-- Even Lighter Gray -->
    <stop offset="0.7" stop-color="#cccccc"/> <!-- Lightest Gray -->
    <stop offset="0.8" stop-color="#bfbfbf"/> <!-- Near White Gray -->
    <stop offset="0.88" stop-color="#e6e6e6"/> <!-- Nearer White -->
    <stop offset="0.95" stop-color="#f2f2f2"/> <!-- Almost White -->
    <stop offset="1" stop-color="#ffffff"/> <!-- White -->
<stop offset="1"/>
</radialGradient>
<radialGradient id="paint6_radial_0_1" cx="0" cy="0" r="1" gradientUnits="userSpaceOnUse" gradientTransform="translate(241.595 438.959) rotate(58.4028) scale(307.639 307.623)">
<stop offset="0.18" stop-color="#f0f0f0"/> <!-- Light Gray -->
    <stop offset="0.48" stop-color="#e5e5e5"/> <!-- Lighter Gray -->
    <stop offset="0.59" stop-color="#d9d9d9"/> <!-- Even Lighter Gray -->
    <stop offset="0.7" stop-color="#cccccc"/> <!-- Lightest Gray -->
    <stop offset="0.8" stop-color="#bfbfbf"/> <!-- Near White Gray -->
    <stop offset="0.88" stop-color="#e6e6e6"/> <!-- Nearer White -->
    <stop offset="0.95" stop-color="#f2f2f2"/> <!-- Almost White -->
    <stop offset="1" stop-color="#ffffff"/> <!-- White -->
<stop offset="1"/>
</radialGradient>
<radialGradient id="paint7_radial_0_1" cx="0" cy="0" r="1" gradientUnits="userSpaceOnUse" gradientTransform="translate(241.591 438.961) rotate(58.4028) scale(307.639 307.623)">
<stop offset="0.18" stop-color="#f0f0f0"/> <!-- Light Gray -->
    <stop offset="0.48" stop-color="#e5e5e5"/> <!-- Lighter Gray -->
    <stop offset="0.59" stop-color="#d9d9d9"/> <!-- Even Lighter Gray -->
    <stop offset="0.7" stop-color="#cccccc"/> <!-- Lightest Gray -->
    <stop offset="0.8" stop-color="#bfbfbf"/> <!-- Near White Gray -->
    <stop offset="0.88" stop-color="#e6e6e6"/> <!-- Nearer White -->
    <stop offset="0.95" stop-color="#f2f2f2"/> <!-- Almost White -->
    <stop offset="1" stop-color="#ffffff"/> <!-- White -->
<stop offset="1"/>
</radialGradient>
<clipPath id="clip0_0_1">
<rect width="472" height="377" fill="white" transform="translate(1 229)"/>
</clipPath>
</defs>
</svg>
