<svg id="Layer_1" enable-background="new 0 0 24 24" viewBox="0 0 24 24" xmlns="http://www.w3.org/2000/svg" xmlns:xlink="http://www.w3.org/1999/xlink"><linearGradient id="SVGID_1_" gradientUnits="userSpaceOnUse" x1="-2.253" x2="26.13" y1="5.807" y2="19.043"><stop offset="0" stop-color="#fff" stop-opacity=".2"/><stop offset="1" stop-color="#fff" stop-opacity="0"/></linearGradient><g><g id="XMLID_1359_"><g id="XMLID_1361_"><path d="m23.5004177 24c-.1567383 0-.3110352-.0732422-.4086914-.2109375-.3144531-.4443359-.9150391-.8779297-1.5512695-1.3369141-1.0395508-.75-2.2182617-1.6005859-2.5253906-2.8310547-.0341797-.1352539-.0097656-.2783203.0668945-.3950195.0761719-.1166992.1982422-.1962891.3359375-.2192383.9384766-.15625 2.2983398-.5195313 3.1499023-.7583008-.8720703-.8486328-2.7329102-2.4291992-5.2285156-3.2749023-.1196289-.0405273-.2197266-.125-.2797852-.2368164-.1992188-.3701172-.4199219-.8764648-.675293-1.4624023-1.5161133-3.4785156-4.3388672-9.953125-11.9379883-10.7773438-.0825194-.008789-.1611327-.0380859-.2290038-.0844726-.991211-.6796875-2.3120119-1.4125977-2.7172853-1.4125977-.5 0-.5 0-.5.5.0166016.2353516.5722656.9995117.9042969 1.4560547.6791993.934082 1.0957032 1.5322266 1.0957032 2.0439453 0 .6640625 1.0561523 3.4575195 1.8266602 4.1210938.1669922.144043.2197266.3803711.1303711.5820313-.0776367.1748046-.1557617.3388671-.2314453.4985351-.4052735.8544921-.725586 1.5292968-.725586 3.2983398 0 1.8530273.7788086 3 1.5 3 .2382813-.1640625.5-1.6269531.5-3 0-.2456055.1787109-.4550781.4213867-.4936523.2382813-.0395508.4775391.1049805.5537109.3383789.0131836.0400391 1.3271484 3.9916992 3.8134766 5.746582.2255859.159668.2792969.4711914.1201172.6972656-.1591797.2246094-.4711981.2783203-.6972656.1201172-1.5678711-1.1069336-2.6870117-2.9179688-3.3720703-4.3081055-.1845703 1.0244141-.5683594 1.8994141-1.3393555 1.8994141-1.2421875 0-2.5-1.3740234-2.5-4 0-1.9941406.3994141-2.8359375.8222656-3.7270508.0268555-.0566406.0541992-.1137695.081543-.171875-.9545898-1.1333008-1.9038087-3.7827148-1.9038087-4.6010742-.0166016-.2353516-.5722656-.9995117-.9042969-1.4560547-.6791992-.934082-1.0957031-1.5322265-1.0957031-2.0439453 0-1.0512695.4487305-1.5 1.5-1.5.8471681 0 2.5351563 1.0820313 3.1791992 1.5170898 8.0825195.9453125 11.1459961 7.9716797 12.621582 11.3574219.2094727.4799805.3896484.8950195.5512695 1.21875 3.6640625 1.3066406 5.934082 3.9702148 6.0307617 4.0849609.1083984.1289063.1445313.3037109.0961914.4648438-.0478516.1611328-.1743164.2875977-.3354492.3359375-.090332.0268555-1.965332.5878906-3.4472656.8974609.390625.6542969 1.1704102 1.2172852 1.9296875 1.7646484.7050781.5092773 1.3710938.9902344 1.7822266 1.5698242.159668.2255859.105957.5375977-.1191406.6972656-.0878905.0620118-.1884764.091797-.2885741.091797z" fill="#018fb4"/></g></g><g id="XMLID_1362_"><path d="m5.9999294 5.5c-.2763672 0-.5-.2236328-.5-.5 0-.2758789-.2241211-.5-.5-.5-.2763672 0-.5-.2236328-.5-.5s.2236328-.5.5-.5c.8271484 0 1.5.6728516 1.5 1.5 0 .2763672-.2236328.5-.5.5z" fill="#018fb4"/></g><path d="m23.9081326 23.2109375c-.4111328-.5795898-1.0771484-1.0605469-1.7822266-1.5698242-.7592773-.5473633-1.5390625-1.1103516-1.9296875-1.7646484 1.4819336-.3095703 3.3569336-.8706055 3.4472656-.8974609.1611328-.0483398.2875977-.1748047.3354492-.3359375.0483398-.1611328.012207-.3359375-.0961914-.4648438-.0966797-.1147461-2.3666992-2.7783203-6.0307617-4.0849609-.1616211-.3237305-.3417969-.7387695-.5512695-1.21875-1.475586-3.3857423-4.5390625-10.4121095-12.6215821-11.357422-.6440429-.4350585-2.3320312-1.5170898-3.1791993-1.5170898-1.0512695 0-1.5.4487305-1.5 1.5 0 .5117188.4165039 1.1098633 1.0957031 2.0439453.3320313.456543.8876953 1.2207031.9042969 1.4560547 0 .8183594.9492189 3.4677734 1.9038087 4.6010742-.0273438.0581055-.0546875.1152344-.081543.171875-.4228515.8911133-.8222656 1.7329102-.8222656 3.7270508 0 2.6259766 1.2578125 4 2.5 4 .7709961 0 1.1547852-.875 1.3393555-1.8994141.6850586 1.3901367 1.8041992 3.2011719 3.3720703 4.3081055.2260675.1582031.5380859.1044922.6972656-.1201172.1591797-.2260742.1054688-.5375977-.1201172-.6972656-2.4863281-1.7548828-3.800293-5.706543-3.8134766-5.746582-.0761719-.2333984-.3154297-.3779297-.5537109-.3383789-.2426757.0385742-.4213867.2480468-.4213867.4936523 0 1.3730469-.2617188 2.8359375-.5 3-.7211914 0-1.5-1.1469727-1.5-3 0-1.769043.3203125-2.4438477.7255859-3.2983398.0756837-.159668.1538087-.3237305.2314454-.4985352.0893555-.2016602.0366211-.4379883-.1303711-.5820313-.7705078-.6635742-1.8266602-3.4570312-1.8266602-4.1210937 0-.5117188-.4165039-1.1098633-1.0957032-2.0439453-.3320313-.456543-.8876953-1.2207031-.9042969-1.4560547 0-.5 0-.5.5-.5.4052734 0 1.7260743.7329102 2.7172852 1.4125977.0678712.0463867.1464845.0756836.229004.0844726 7.5991211.8242188 10.421875 7.2988281 11.9379883 10.7773438.2553711.5859375.4760742 1.0922852.675293 1.4624023.0600586.1118164.1601563.1962891.2797852.2368164 2.4956055.8457031 4.3564453 2.4262695 5.2285156 3.2749023-.8515625.2387695-2.2114258.6020508-3.1499023.7583008-.1376953.0229492-.2597656.1025391-.3359375.2192383-.0766602.1166992-.1010742.2597656-.0668945.3950195.3071289 1.2304688 1.4858398 2.0810547 2.5253906 2.8310547.6362305.4589844 1.2368164.8925781 1.5512695 1.3369141.0976562.1376953.251953.2109375.4086913.2109375.1000977 0 .2006836-.0297852.2885742-.0917969.2250977-.1596679.2788086-.4716797.1191407-.6972656zm-19.4082032-19.2109375c0 .2763672.2236328.5.5.5.2758789 0 .5.2241211.5.5 0 .2763672.2236328.5.5.5s.5-.2236328.5-.5c0-.8271484-.6728516-1.5-1.5-1.5-.2763672 0-.5.2236328-.5.5z" fill="url(#SVGID_1_)"/></g><g/><g/><g/><g/><g/><g/><g/><g/><g/><g/><g/><g/><g/><g/><g/></svg>