<svg height="512" viewBox="0 0 176 176" width="512" xmlns="http://www.w3.org/2000/svg"><g id="Layer_2" data-name="Layer 2"><g id="_47.swift" data-name="47.swift"><circle id="background" cx="88" cy="88" fill="#ff5722" r="88"/><path d="m100.8 39.88c48.36 32.27 32.68 67.73 32.68 67.73s13.73 15.2 8.21 28.51c0 0-5.7-9.3-15.16-9.3-9.14 0-14.55 9.3-33 9.3-41.07 0-60.53-33.64-60.53-33.64 37 23.92 62.28 7 62.28 7-16.71-9.48-52.14-54.87-52.14-54.87 30.86 25.79 44.22 32.56 44.22 32.56-8-6.44-30.35-38-30.35-38 17.87 17.73 53.4 42.45 53.4 42.45 10.19-27.29-9.61-51.74-9.61-51.74z" fill="#fff"/></g></g></svg>